<?xml version="1.0"?>
<svg xmlns="http://www.w3.org/2000/svg" xmlns:xlink="http://www.w3.org/1999/xlink" viewBox="0 0 94 122">
  <g id="container">
    <path fill="#fff" d="M8.1 89.9L47.6 110l38-20.1V11.3H8.1z"/>
    <path fill="#f2f3f2" d="M86.4 11.6L7.3 91.3l41 20.3 38.1-19.5z"/>
    <path d="M5.5 37.5v54.1l1.4.7 39.5 20.1 1.2.6 1.2-.6 38.1-20.1 1.4-.7V8.7H5.5v28.8zm2.6 52.6V11.3h77.6v78.8l-38.1 20.1L8.1 90.1z" fill="#dcdedc"/>
    <path id="logo" d="M46.9 12.6c.4 0 .8 0 1.2.1L46.9 15c-1.8-.1-3.4 1.3-3.5 3.1-.1 1.8 1.3 3.4 3.1 3.5h.4c.8 0 1.6-.3 2.2-.8l1.3 2.2c-1 .7-2.2 1.1-3.5 1.1-3.2.1-5.9-2.3-6-5.5-.1-3.2 2.3-5.9 5.5-6h.5zm4.1 4.9l1.5 2.5-1.5 2.4-1.4-2.4h-2.9l1.5-2.5H51zm-2.4-.9c0-.4.1-.8.3-1.1.2-.3.6-.6.9-.8l.2-.1c.4-.2.5-.3.5-.5s-.3-.4-.5-.4c-.4 0-.7.2-.9.6l-.5-.5c.1-.2.3-.4.5-.6.3-.2.6-.2.9-.2.3 0 .7.1.9.3.2.2.4.5.4.8 0 .5-.3.9-.9 1.1l-.3.2c-.3.2-.5.3-.6.6h1.8v.7l-2.7-.1zm-1.7 12.5l9.5-5.4v-15H37.3v14.9l9.6 5.5z" fill="#ff492c"/>
    <path id="banner" d="M90.2 64.5H3.6l-3.2 7 3.2 7h86.6l3.1-7z" fill="#23cca2"/>
  <path fill="#252530" transform="translate(19.74, 60)" d="M4.51 0.12L4.51 0.12Q3.31 0.12 2.42-0.26L2.42-0.26L2.42-0.26Q1.51-0.65 1.03-1.36L1.03-1.36L1.03-1.36Q0.54-2.07 0.54-3.01L0.54-3.01L0.54-3.34L0.54-3.34Q0.54-3.42 0.59-3.47L0.59-3.47L0.59-3.47Q0.65-3.52 0.72-3.52L0.72-3.52L2.43-3.52L2.43-3.52Q2.50-3.52 2.56-3.47L2.56-3.47L2.56-3.47Q2.61-3.42 2.61-3.34L2.61-3.34L2.61-3.12L2.61-3.12Q2.61-2.52 3.17-2.11L3.17-2.11L3.17-2.11Q3.72-1.69 4.67-1.69L4.67-1.69L4.67-1.69Q5.46-1.69 5.85-2.03L5.85-2.03L5.85-2.03Q6.24-2.37 6.24-2.86L6.24-2.86L6.24-2.86Q6.24-3.23 6-3.47L6-3.47L6-3.47Q5.76-3.72 5.35-3.91L5.35-3.91L5.35-3.91Q4.93-4.09 4.04-4.42L4.04-4.42L4.04-4.42Q3.03-4.77 2.33-5.13L2.33-5.13L2.33-5.13Q1.64-5.49 1.16-6.11L1.16-6.11L1.16-6.11Q0.69-6.73 0.69-7.65L0.69-7.65L0.69-7.65Q0.69-8.55 1.16-9.22L1.16-9.22L1.16-9.22Q1.62-9.90 2.44-10.26L2.44-10.26L2.44-10.26Q3.27-10.62 4.35-10.62L4.35-10.62L4.35-10.62Q5.49-10.62 6.38-10.21L6.38-10.21L6.38-10.21Q7.27-9.81 7.78-9.08L7.78-9.08L7.78-9.08Q8.28-8.36 8.28-7.39L8.28-7.39L8.28-7.17L8.28-7.17Q8.28-7.09 8.23-7.04L8.23-7.04L8.23-7.04Q8.17-6.99 8.10-6.99L8.10-6.99L6.38-6.99L6.38-6.99Q6.30-6.99 6.25-7.04L6.25-7.04L6.25-7.04Q6.19-7.09 6.19-7.17L6.19-7.17L6.19-7.29L6.19-7.29Q6.19-7.92 5.68-8.36L5.68-8.36L5.68-8.36Q5.16-8.80 4.26-8.80L4.26-8.80L4.26-8.80Q3.55-8.80 3.16-8.50L3.16-8.50L3.16-8.50Q2.76-8.21 2.76-7.68L2.76-7.68L2.76-7.68Q2.76-7.30 2.99-7.05L2.99-7.05L2.99-7.05Q3.23-6.79 3.68-6.59L3.68-6.59L3.68-6.59Q4.14-6.39 5.10-6.04L5.10-6.04L5.10-6.04Q6.17-5.65 6.77-5.35L6.77-5.35L6.77-5.35Q7.38-5.05 7.87-4.46L7.87-4.46L7.87-4.46Q8.36-3.87 8.36-2.92L8.36-2.92L8.36-2.92Q8.36-1.51 7.32-0.70L7.32-0.70L7.32-0.70Q6.29 0.12 4.51 0.12L4.51 0.12ZM14.20-7.53L14.20-7.53Q14.20-7.60 14.26-7.66L14.26-7.66L14.26-7.66Q14.31-7.71 14.38-7.71L14.38-7.71L16.14-7.71L16.14-7.71Q16.21-7.71 16.27-7.66L16.27-7.66L16.27-7.66Q16.32-7.60 16.32-7.53L16.32-7.53L16.32-0.18L16.32-0.18Q16.32-0.10 16.27-0.05L16.27-0.05L16.27-0.05Q16.21 0 16.14 0L16.14 0L14.38 0L14.38 0Q14.31 0 14.26-0.05L14.26-0.05L14.26-0.05Q14.20-0.10 14.20-0.18L14.20-0.18L14.20-0.69L14.20-0.69Q14.20-0.73 14.17-0.74L14.17-0.74L14.17-0.74Q14.14-0.75 14.11-0.70L14.11-0.70L14.11-0.70Q13.51 0.10 12.25 0.10L12.25 0.10L12.25 0.10Q11.11 0.10 10.38-0.58L10.38-0.58L10.38-0.58Q9.64-1.27 9.64-2.52L9.64-2.52L9.64-7.53L9.64-7.53Q9.64-7.60 9.70-7.66L9.70-7.66L9.70-7.66Q9.75-7.71 9.82-7.71L9.82-7.71L11.56-7.71L11.56-7.71Q11.64-7.71 11.69-7.66L11.69-7.66L11.69-7.66Q11.74-7.60 11.74-7.53L11.74-7.53L11.74-3.04L11.74-3.04Q11.74-2.44 12.07-2.07L12.07-2.07L12.07-2.07Q12.39-1.69 12.96-1.69L12.96-1.69L12.96-1.69Q13.47-1.69 13.80-2.00L13.80-2.00L13.80-2.00Q14.13-2.31 14.20-2.80L14.20-2.80L14.20-7.53ZM24.76-5.64L24.76-5.64Q25.03-4.88 25.03-3.84L25.03-3.84L25.03-3.84Q25.03-2.80 24.75-1.96L24.75-1.96L24.75-1.96Q24.40-1.00 23.66-0.44L23.66-0.44L23.66-0.44Q22.92 0.12 21.82 0.12L21.82 0.12L21.82 0.12Q20.74 0.12 20.14-0.63L20.14-0.63L20.14-0.63Q20.11-0.67 20.08-0.66L20.08-0.66L20.08-0.66Q20.05-0.65 20.05-0.60L20.05-0.60L20.05 2.61L20.05 2.61Q20.05 2.69 20.00 2.74L20.00 2.74L20.00 2.74Q19.95 2.79 19.87 2.79L19.87 2.79L18.12 2.79L18.12 2.79Q18.04 2.79 17.99 2.74L17.99 2.74L17.99 2.74Q17.94 2.69 17.94 2.61L17.94 2.61L17.94-7.53L17.94-7.53Q17.94-7.60 17.99-7.66L17.99-7.66L17.99-7.66Q18.04-7.71 18.12-7.71L18.12-7.71L19.87-7.71L19.87-7.71Q19.95-7.71 20.00-7.66L20.00-7.66L20.00-7.66Q20.05-7.60 20.05-7.53L20.05-7.53L20.05-7.04L20.05-7.04Q20.05-6.99 20.08-6.98L20.08-6.98L20.08-6.98Q20.11-6.97 20.14-7.00L20.14-7.00L20.14-7.00Q20.77-7.83 21.88-7.83L21.88-7.83L21.88-7.83Q22.92-7.83 23.68-7.25L23.68-7.25L23.68-7.25Q24.43-6.67 24.76-5.64L24.76-5.64ZM22.47-2.28L22.47-2.28Q22.84-2.86 22.84-3.87L22.84-3.87L22.84-3.87Q22.84-4.81 22.53-5.37L22.53-5.37L22.53-5.37Q22.18-6.01 21.42-6.01L21.42-6.01L21.42-6.01Q20.73-6.01 20.38-5.37L20.38-5.37L20.38-5.37Q20.07-4.83 20.07-3.85L20.07-3.85L20.07-3.85Q20.07-2.85 20.40-2.29L20.40-2.29L20.40-2.29Q20.74-1.69 21.42-1.69L21.42-1.69L21.42-1.69Q22.09-1.69 22.47-2.28L22.47-2.28ZM33.28-5.64L33.28-5.64Q33.55-4.88 33.55-3.84L33.55-3.84L33.55-3.84Q33.55-2.80 33.27-1.96L33.27-1.96L33.27-1.96Q32.92-1.00 32.18-0.44L32.18-0.44L32.18-0.44Q31.44 0.12 30.34 0.12L30.34 0.12L30.34 0.12Q29.26 0.12 28.66-0.63L28.66-0.63L28.66-0.63Q28.63-0.67 28.60-0.66L28.60-0.66L28.60-0.66Q28.57-0.65 28.57-0.60L28.57-0.60L28.57 2.61L28.57 2.61Q28.57 2.69 28.52 2.74L28.52 2.74L28.52 2.74Q28.47 2.79 28.39 2.79L28.39 2.79L26.64 2.79L26.64 2.79Q26.56 2.79 26.51 2.74L26.51 2.74L26.51 2.74Q26.46 2.69 26.46 2.61L26.46 2.61L26.46-7.53L26.46-7.53Q26.46-7.60 26.51-7.66L26.51-7.66L26.51-7.66Q26.56-7.71 26.64-7.71L26.64-7.71L28.39-7.71L28.39-7.71Q28.47-7.71 28.52-7.66L28.52-7.66L28.52-7.66Q28.57-7.60 28.57-7.53L28.57-7.53L28.57-7.04L28.57-7.04Q28.57-6.99 28.60-6.98L28.60-6.98L28.60-6.98Q28.63-6.97 28.66-7.00L28.66-7.00L28.66-7.00Q29.29-7.83 30.40-7.83L30.40-7.83L30.40-7.83Q31.44-7.83 32.20-7.25L32.20-7.25L32.20-7.25Q32.95-6.67 33.28-5.64L33.28-5.64ZM30.99-2.28L30.99-2.28Q31.36-2.86 31.36-3.87L31.36-3.87L31.36-3.87Q31.36-4.81 31.05-5.37L31.05-5.37L31.05-5.37Q30.70-6.01 29.94-6.01L29.94-6.01L29.94-6.01Q29.25-6.01 28.90-5.37L28.90-5.37L28.90-5.37Q28.59-4.83 28.59-3.85L28.59-3.85L28.59-3.85Q28.59-2.85 28.92-2.29L28.92-2.29L28.92-2.29Q29.26-1.69 29.94-1.69L29.94-1.69L29.94-1.69Q30.61-1.69 30.99-2.28L30.99-2.28ZM38.33 0.12L38.33 0.12Q37.06 0.12 36.16-0.54L36.16-0.54L36.16-0.54Q35.27-1.20 34.94-2.34L34.94-2.34L34.94-2.34Q34.73-3.04 34.73-3.87L34.73-3.87L34.73-3.87Q34.73-4.75 34.94-5.46L34.94-5.46L34.94-5.46Q35.28-6.57 36.18-7.20L36.18-7.20L36.18-7.20Q37.08-7.83 38.34-7.83L38.34-7.83L38.34-7.83Q39.57-7.83 40.44-7.21L40.44-7.21L40.44-7.21Q41.31-6.58 41.67-5.47L41.67-5.47L41.67-5.47Q41.91-4.72 41.91-3.90L41.91-3.90L41.91-3.90Q41.91-3.09 41.70-2.38L41.70-2.38L41.70-2.38Q41.37-1.21 40.48-0.55L40.48-0.55L40.48-0.55Q39.59 0.12 38.33 0.12L38.33 0.12ZM38.33-1.69L38.33-1.69Q38.82-1.69 39.16-1.99L39.16-1.99L39.16-1.99Q39.51-2.29 39.66-2.82L39.66-2.82L39.66-2.82Q39.78-3.30 39.78-3.87L39.78-3.87L39.78-3.87Q39.78-4.50 39.66-4.93L39.66-4.93L39.66-4.93Q39.49-5.44 39.15-5.73L39.15-5.73L39.15-5.73Q38.80-6.01 38.31-6.01L38.31-6.01L38.31-6.01Q37.80-6.01 37.46-5.73L37.46-5.73L37.46-5.73Q37.13-5.44 36.98-4.93L36.98-4.93L36.98-4.93Q36.86-4.58 36.86-3.87L36.86-3.87L36.86-3.87Q36.86-3.19 36.96-2.82L36.96-2.82L36.96-2.82Q37.11-2.29 37.46-1.99L37.46-1.99L37.46-1.99Q37.81-1.69 38.33-1.69L38.33-1.69ZM47.12-7.81L47.12-7.81Q47.66-7.81 47.97-7.60L47.97-7.60L47.97-7.60Q48.09-7.54 48.06-7.38L48.06-7.38L47.75-5.67L47.75-5.67Q47.73-5.49 47.54-5.56L47.54-5.56L47.54-5.56Q47.31-5.64 47.01-5.64L47.01-5.64L47.01-5.64Q46.89-5.64 46.68-5.61L46.68-5.61L46.68-5.61Q46.14-5.56 45.77-5.21L45.77-5.21L45.77-5.21Q45.39-4.86 45.39-4.27L45.39-4.27L45.39-0.18L45.39-0.18Q45.39-0.10 45.34-0.05L45.34-0.05L45.34-0.05Q45.29 0 45.21 0L45.21 0L43.46 0L43.46 0Q43.38 0 43.33-0.05L43.33-0.05L43.33-0.05Q43.28-0.10 43.28-0.18L43.28-0.18L43.28-7.53L43.28-7.53Q43.28-7.60 43.33-7.66L43.33-7.66L43.33-7.66Q43.38-7.71 43.46-7.71L43.46-7.71L45.21-7.71L45.21-7.71Q45.29-7.71 45.34-7.66L45.34-7.66L45.34-7.66Q45.39-7.60 45.39-7.53L45.39-7.53L45.39-6.96L45.39-6.96Q45.39-6.92 45.42-6.90L45.42-6.90L45.42-6.90Q45.45-6.88 45.47-6.92L45.47-6.92L45.47-6.92Q46.08-7.81 47.12-7.81L47.12-7.81ZM53.45-6.19L53.45-6.19Q53.45-6.12 53.39-6.07L53.39-6.07L53.39-6.07Q53.34-6.01 53.27-6.01L53.27-6.01L51.83-6.01L51.83-6.01Q51.75-6.01 51.75-5.94L51.75-5.94L51.75-2.76L51.75-2.76Q51.75-2.27 51.95-2.02L51.95-2.02L51.95-2.02Q52.16-1.78 52.61-1.78L52.61-1.78L53.10-1.78L53.10-1.78Q53.18-1.78 53.23-1.73L53.23-1.73L53.23-1.73Q53.28-1.68 53.28-1.60L53.28-1.60L53.28-0.18L53.28-0.18Q53.28-0.01 53.10 0.01L53.10 0.01L53.10 0.01Q52.47 0.04 52.20 0.04L52.20 0.04L52.20 0.04Q50.95 0.04 50.34-0.37L50.34-0.37L50.34-0.37Q49.73-0.78 49.71-1.92L49.71-1.92L49.71-5.94L49.71-5.94Q49.71-6.01 49.64-6.01L49.64-6.01L48.78-6.01L48.78-6.01Q48.71-6.01 48.65-6.07L48.65-6.07L48.65-6.07Q48.60-6.12 48.60-6.19L48.60-6.19L48.60-7.53L48.60-7.53Q48.60-7.60 48.65-7.66L48.65-7.66L48.65-7.66Q48.71-7.71 48.78-7.71L48.78-7.71L49.64-7.71L49.64-7.71Q49.71-7.71 49.71-7.79L49.71-7.79L49.71-9.57L49.71-9.57Q49.71-9.64 49.76-9.70L49.76-9.70L49.76-9.70Q49.82-9.75 49.89-9.75L49.89-9.75L51.57-9.75L51.57-9.75Q51.65-9.75 51.70-9.70L51.70-9.70L51.70-9.70Q51.75-9.64 51.75-9.57L51.75-9.57L51.75-7.79L51.75-7.79Q51.75-7.71 51.83-7.71L51.83-7.71L53.27-7.71L53.27-7.71Q53.34-7.71 53.39-7.66L53.39-7.66L53.39-7.66Q53.45-7.60 53.45-7.53L53.45-7.53L53.45-6.19Z"/><path fill="#252530" transform="translate(30.97, 45)" d="M7.14-5.47L7.14-5.47Q7.05-5.43 7.14-5.38L7.14-5.38L7.14-5.38Q8.56-4.65 8.56-2.94L8.56-2.94L8.56-2.94Q8.56-1.48 7.57-0.74L7.57-0.74L7.57-0.74Q6.58 0 4.98 0L4.98 0L1.09 0L1.09 0Q1.02 0 0.97-0.05L0.97-0.05L0.97-0.05Q0.91-0.10 0.91-0.18L0.91-0.18L0.91-10.32L0.91-10.32Q0.91-10.39 0.97-10.45L0.97-10.45L0.97-10.45Q1.02-10.50 1.09-10.50L1.09-10.50L4.86-10.50L4.86-10.50Q8.41-10.50 8.41-7.62L8.41-7.62L8.41-7.62Q8.41-6.12 7.14-5.47L7.14-5.47ZM3.10-8.69L3.10-8.69Q3.03-8.69 3.03-8.61L3.03-8.61L3.03-6.27L3.03-6.27Q3.03-6.19 3.10-6.19L3.10-6.19L4.86-6.19L4.86-6.19Q5.56-6.19 5.96-6.52L5.96-6.52L5.96-6.52Q6.34-6.85 6.34-7.42L6.34-7.42L6.34-7.42Q6.34-8.01 5.96-8.35L5.96-8.35L5.96-8.35Q5.56-8.69 4.86-8.69L4.86-8.69L3.10-8.69ZM4.98-1.83L4.98-1.83Q5.67-1.83 6.06-2.18L6.06-2.18L6.06-2.18Q6.45-2.53 6.45-3.15L6.45-3.15L6.45-3.15Q6.45-3.76 6.06-4.12L6.06-4.12L6.06-4.12Q5.67-4.47 4.96-4.47L4.96-4.47L3.10-4.47L3.10-4.47Q3.03-4.47 3.03-4.39L3.03-4.39L3.03-1.91L3.03-1.91Q3.03-1.83 3.10-1.83L3.10-1.83L4.98-1.83ZM16.90-4.65L16.90-4.65Q16.99-4.08 16.96-3.38L16.96-3.38L16.96-3.38Q16.95-3.19 16.77-3.19L16.77-3.19L12.13-3.19L12.13-3.19Q12.04-3.19 12.07-3.12L12.07-3.12L12.07-3.12Q12.12-2.82 12.24-2.52L12.24-2.52L12.24-2.52Q12.63-1.68 13.83-1.68L13.83-1.68L13.83-1.68Q14.79-1.69 15.34-2.46L15.34-2.46L15.34-2.46Q15.40-2.55 15.48-2.55L15.48-2.55L15.48-2.55Q15.52-2.55 15.58-2.49L15.58-2.49L16.66-1.43L16.66-1.43Q16.74-1.35 16.74-1.29L16.74-1.29L16.74-1.29Q16.74-1.26 16.68-1.17L16.68-1.17L16.68-1.17Q16.18-0.55 15.40-0.22L15.40-0.22L15.40-0.22Q14.63 0.12 13.69 0.12L13.69 0.12L13.69 0.12Q12.40 0.12 11.51-0.46L11.51-0.46L11.51-0.46Q10.62-1.05 10.23-2.10L10.23-2.10L10.23-2.10Q9.91-2.85 9.91-4.06L9.91-4.06L9.91-4.06Q9.91-4.89 10.14-5.52L10.14-5.52L10.14-5.52Q10.48-6.58 11.35-7.21L11.35-7.21L11.35-7.21Q12.21-7.84 13.39-7.84L13.39-7.84L13.39-7.84Q14.89-7.84 15.80-6.97L15.80-6.97L15.80-6.97Q16.71-6.10 16.90-4.65L16.90-4.65ZM13.41-6.01L13.41-6.01Q12.46-6.01 12.16-5.13L12.16-5.13L12.16-5.13Q12.10-4.93 12.06-4.65L12.06-4.65L12.06-4.65Q12.06-4.58 12.13-4.58L12.13-4.58L14.73-4.58L14.73-4.58Q14.82-4.58 14.79-4.65L14.79-4.65L14.79-4.65Q14.71-5.08 14.71-5.07L14.71-5.07L14.71-5.07Q14.58-5.52 14.24-5.77L14.24-5.77L14.24-5.77Q13.90-6.01 13.41-6.01L13.41-6.01ZM21.34 0.10L21.34 0.10Q20.34 0.10 19.59-0.18L19.59-0.18L19.59-0.18Q18.84-0.46 18.43-0.97L18.43-0.97L18.43-0.97Q18.01-1.48 18.01-2.13L18.01-2.13L18.01-2.28L18.01-2.28Q18.01-2.35 18.07-2.41L18.07-2.41L18.07-2.41Q18.12-2.46 18.19-2.46L18.19-2.46L19.86-2.46L19.86-2.46Q19.93-2.46 19.99-2.41L19.99-2.41L19.99-2.41Q20.04-2.35 20.04-2.28L20.04-2.28L20.04-2.27L20.04-2.27Q20.04-1.93 20.41-1.70L20.41-1.70L20.41-1.70Q20.77-1.47 21.33-1.47L21.33-1.47L21.33-1.47Q21.84-1.47 22.15-1.67L22.15-1.67L22.15-1.67Q22.47-1.88 22.47-2.17L22.47-2.17L22.47-2.17Q22.47-2.44 22.20-2.58L22.20-2.58L22.20-2.58Q21.93-2.71 21.31-2.86L21.31-2.86L21.31-2.86Q20.61-3.04 20.20-3.21L20.20-3.21L20.20-3.21Q19.24-3.54 18.67-4.02L18.67-4.02L18.67-4.02Q18.10-4.50 18.10-5.40L18.10-5.40L18.10-5.40Q18.10-6.51 18.97-7.16L18.97-7.16L18.97-7.16Q19.83-7.81 21.25-7.81L21.25-7.81L21.25-7.81Q22.21-7.81 22.93-7.51L22.93-7.51L22.93-7.51Q23.65-7.20 24.05-6.64L24.05-6.64L24.05-6.64Q24.45-6.09 24.45-5.38L24.45-5.38L24.45-5.38Q24.45-5.31 24.40-5.26L24.40-5.26L24.40-5.26Q24.34-5.21 24.27-5.21L24.27-5.21L22.66-5.21L22.66-5.21Q22.59-5.21 22.54-5.26L22.54-5.26L22.54-5.26Q22.48-5.31 22.48-5.38L22.48-5.38L22.48-5.38Q22.48-5.71 22.15-5.94L22.15-5.94L22.15-5.94Q21.81-6.17 21.25-6.17L21.25-6.17L21.25-6.17Q20.76-6.17 20.45-5.98L20.45-5.98L20.45-5.98Q20.13-5.80 20.13-5.49L20.13-5.49L20.13-5.49Q20.13-5.19 20.44-5.04L20.44-5.04L20.44-5.04Q20.74-4.89 21.46-4.72L21.46-4.72L21.46-4.72Q21.63-4.68 21.84-4.63L21.84-4.63L21.84-4.63Q22.05-4.58 22.29-4.50L22.29-4.50L22.29-4.50Q23.35-4.18 23.97-3.69L23.97-3.69L23.97-3.69Q24.58-3.19 24.58-2.25L24.58-2.25L24.58-2.25Q24.58-1.14 23.71-0.52L23.71-0.52L23.71-0.52Q22.83 0.10 21.34 0.10L21.34 0.10ZM30.22-6.19L30.22-6.19Q30.22-6.12 30.17-6.07L30.17-6.07L30.17-6.07Q30.12-6.01 30.04-6.01L30.04-6.01L28.60-6.01L28.60-6.01Q28.53-6.01 28.53-5.94L28.53-5.94L28.53-2.76L28.53-2.76Q28.53-2.27 28.73-2.02L28.73-2.02L28.73-2.02Q28.93-1.78 29.38-1.78L29.38-1.78L29.88-1.78L29.88-1.78Q29.95-1.78 30.01-1.73L30.01-1.73L30.01-1.73Q30.06-1.68 30.06-1.60L30.06-1.60L30.06-0.18L30.06-0.18Q30.06-0.01 29.88 0.01L29.88 0.01L29.88 0.01Q29.25 0.04 28.98 0.04L28.98 0.04L28.98 0.04Q27.73 0.04 27.12-0.37L27.12-0.37L27.12-0.37Q26.50-0.78 26.49-1.92L26.49-1.92L26.49-5.94L26.49-5.94Q26.49-6.01 26.41-6.01L26.41-6.01L25.56-6.01L25.56-6.01Q25.48-6.01 25.43-6.07L25.43-6.07L25.43-6.07Q25.38-6.12 25.38-6.19L25.38-6.19L25.38-7.53L25.38-7.53Q25.38-7.60 25.43-7.66L25.43-7.66L25.43-7.66Q25.48-7.71 25.56-7.71L25.56-7.71L26.41-7.71L26.41-7.71Q26.49-7.71 26.49-7.79L26.49-7.79L26.49-9.57L26.49-9.57Q26.49-9.64 26.54-9.70L26.54-9.70L26.54-9.70Q26.59-9.75 26.67-9.75L26.67-9.75L28.35-9.75L28.35-9.75Q28.42-9.75 28.48-9.70L28.48-9.70L28.48-9.70Q28.53-9.64 28.53-9.57L28.53-9.57L28.53-7.79L28.53-7.79Q28.53-7.71 28.60-7.71L28.60-7.71L30.04-7.71L30.04-7.71Q30.12-7.71 30.17-7.66L30.17-7.66L30.17-7.66Q30.22-7.60 30.22-7.53L30.22-7.53L30.22-6.19Z"/><path fill="#242530" transform="translate(30.15, 75.4)" d="M2.99 0.08L2.99 0.08Q2.21 0.08 1.63-0.17L1.63-0.17L1.63-0.17Q1.05-0.42 0.73-0.87L0.73-0.87L0.73-0.87Q0.42-1.32 0.42-1.93L0.42-1.93L0.42-2.18L0.42-2.18Q0.42-2.23 0.46-2.27L0.46-2.27L0.46-2.27Q0.49-2.30 0.54-2.30L0.54-2.30L1.43-2.30L1.43-2.30Q1.48-2.30 1.52-2.27L1.52-2.27L1.52-2.27Q1.55-2.23 1.55-2.18L1.55-2.18L1.55-1.99L1.55-1.99Q1.55-1.53 1.96-1.23L1.96-1.23L1.96-1.23Q2.37-0.92 3.08-0.92L3.08-0.92L3.08-0.92Q3.69-0.92 4-1.18L4-1.18L4-1.18Q4.31-1.44 4.31-1.85L4.31-1.85L4.31-1.85Q4.31-2.13 4.14-2.33L4.14-2.33L4.14-2.33Q3.97-2.52 3.66-2.68L3.66-2.68L3.66-2.68Q3.34-2.84 2.71-3.08L2.71-3.08L2.71-3.08Q2-3.34 1.56-3.57L1.56-3.57L1.56-3.57Q1.12-3.80 0.83-4.20L0.83-4.20L0.83-4.20Q0.53-4.59 0.53-5.18L0.53-5.18L0.53-5.18Q0.53-6.06 1.17-6.57L1.17-6.57L1.17-6.57Q1.81-7.08 2.88-7.08L2.88-7.08L2.88-7.08Q3.63-7.08 4.21-6.82L4.21-6.82L4.21-6.82Q4.78-6.56 5.10-6.09L5.10-6.09L5.10-6.09Q5.42-5.63 5.42-5.02L5.42-5.02L5.42-4.85L5.42-4.85Q5.42-4.80 5.38-4.76L5.38-4.76L5.38-4.76Q5.35-4.73 5.30-4.73L5.30-4.73L4.40-4.73L4.40-4.73Q4.35-4.73 4.32-4.76L4.32-4.76L4.32-4.76Q4.28-4.80 4.28-4.85L4.28-4.85L4.28-4.96L4.28-4.96Q4.28-5.43 3.90-5.75L3.90-5.75L3.90-5.75Q3.51-6.08 2.83-6.08L2.83-6.08L2.83-6.08Q2.28-6.08 1.98-5.85L1.98-5.85L1.98-5.85Q1.67-5.62 1.67-5.20L1.67-5.20L1.67-5.20Q1.67-4.90 1.83-4.71L1.83-4.71L1.83-4.71Q1.99-4.52 2.31-4.37L2.31-4.37L2.31-4.37Q2.63-4.21 3.30-3.97L3.30-3.97L3.30-3.97Q4.01-3.70 4.44-3.48L4.44-3.48L4.44-3.48Q4.86-3.26 5.17-2.87L5.17-2.87L5.17-2.87Q5.47-2.47 5.47-1.88L5.47-1.88L5.47-1.88Q5.47-0.98 4.80-0.45L4.80-0.45L4.80-0.45Q4.14 0.08 2.99 0.08L2.99 0.08ZM9.45-7.01L9.45-7.01Q10.08-7.01 10.56-6.75L10.56-6.75L10.56-6.75Q11.04-6.49 11.30-6.02L11.30-6.02L11.30-6.02Q11.57-5.54 11.57-4.92L11.57-4.92L11.57-4.92Q11.57-4.31 11.30-3.84L11.30-3.84L11.30-3.84Q11.03-3.37 10.54-3.12L10.54-3.12L10.54-3.12Q10.04-2.86 9.39-2.86L9.39-2.86L7.79-2.86L7.79-2.86Q7.74-2.86 7.74-2.81L7.74-2.81L7.74-0.12L7.74-0.12Q7.74-0.07 7.71-0.04L7.71-0.04L7.71-0.04Q7.67 0 7.62 0L7.62 0L6.70 0L6.70 0Q6.65 0 6.62-0.04L6.62-0.04L6.62-0.04Q6.58-0.07 6.58-0.12L6.58-0.12L6.58-6.89L6.58-6.89Q6.58-6.94 6.62-6.98L6.62-6.98L6.62-6.98Q6.65-7.01 6.70-7.01L6.70-7.01L9.45-7.01ZM9.28-3.80L9.28-3.80Q9.79-3.80 10.10-4.10L10.10-4.10L10.10-4.10Q10.41-4.40 10.41-4.89L10.41-4.89L10.41-4.89Q10.41-5.39 10.10-5.70L10.10-5.70L10.10-5.70Q9.79-6.01 9.28-6.01L9.28-6.01L7.79-6.01L7.79-6.01Q7.74-6.01 7.74-5.96L7.74-5.96L7.74-3.85L7.74-3.85Q7.74-3.80 7.79-3.80L7.79-3.80L9.28-3.80ZM16.52 0L16.52 0Q16.42 0 16.38-0.09L16.38-0.09L15.06-2.97L15.06-2.97Q15.04-3.01 15-3.01L15-3.01L13.80-3.01L13.80-3.01Q13.75-3.01 13.75-2.96L13.75-2.96L13.75-0.12L13.75-0.12Q13.75-0.07 13.71-0.04L13.71-0.04L13.71-0.04Q13.68 0 13.63 0L13.63 0L12.71 0L12.71 0Q12.66 0 12.63-0.04L12.63-0.04L12.63-0.04Q12.59-0.07 12.59-0.12L12.59-0.12L12.59-6.88L12.59-6.88Q12.59-6.93 12.63-6.96L12.63-6.96L12.63-6.96Q12.66-7 12.71-7L12.71-7L15.46-7L15.46-7Q16.07-7 16.54-6.75L16.54-6.75L16.54-6.75Q17.01-6.49 17.27-6.03L17.27-6.03L17.27-6.03Q17.53-5.56 17.53-4.96L17.53-4.96L17.53-4.96Q17.53-4.27 17.18-3.79L17.18-3.79L17.18-3.79Q16.82-3.30 16.19-3.11L16.19-3.11L16.19-3.11Q16.17-3.11 16.16-3.09L16.16-3.09L16.16-3.09Q16.15-3.07 16.16-3.05L16.16-3.05L17.57-0.14L17.57-0.14Q17.59-0.10 17.59-0.08L17.59-0.08L17.59-0.08Q17.59 0 17.48 0L17.48 0L16.52 0ZM13.80-6L13.80-6Q13.75-6 13.75-5.95L13.75-5.95L13.75-3.96L13.75-3.96Q13.75-3.91 13.80-3.91L13.80-3.91L15.30-3.91L15.30-3.91Q15.78-3.91 16.07-4.20L16.07-4.20L16.07-4.20Q16.37-4.48 16.37-4.95L16.37-4.95L16.37-4.95Q16.37-5.42 16.07-5.71L16.07-5.71L16.07-5.71Q15.78-6 15.30-6L15.30-6L13.80-6ZM18.84 0L18.84 0Q18.79 0 18.75-0.04L18.75-0.04L18.75-0.04Q18.72-0.07 18.72-0.12L18.72-0.12L18.72-6.88L18.72-6.88Q18.72-6.93 18.75-6.96L18.75-6.96L18.75-6.96Q18.79-7 18.84-7L18.84-7L19.76-7L19.76-7Q19.81-7 19.84-6.96L19.84-6.96L19.84-6.96Q19.88-6.93 19.88-6.88L19.88-6.88L19.88-0.12L19.88-0.12Q19.88-0.07 19.84-0.04L19.84-0.04L19.84-0.04Q19.81 0 19.76 0L19.76 0L18.84 0ZM25.41-6.88L25.41-6.88Q25.41-6.93 25.45-6.96L25.45-6.96L25.45-6.96Q25.48-7 25.53-7L25.53-7L26.45-7L26.45-7Q26.50-7 26.54-6.96L26.54-6.96L26.54-6.96Q26.57-6.93 26.57-6.88L26.57-6.88L26.57-0.12L26.57-0.12Q26.57-0.07 26.54-0.04L26.54-0.04L26.54-0.04Q26.50 0 26.45 0L26.45 0L25.56 0L25.56 0Q25.46 0 25.42-0.08L25.42-0.08L22.54-4.80L22.54-4.80Q22.52-4.83 22.50-4.83L22.50-4.83L22.50-4.83Q22.48-4.82 22.48-4.78L22.48-4.78L22.50-0.12L22.50-0.12Q22.50-0.07 22.46-0.04L22.46-0.04L22.46-0.04Q22.43 0 22.38 0L22.38 0L21.46 0L21.46 0Q21.41 0 21.38-0.04L21.38-0.04L21.38-0.04Q21.34-0.07 21.34-0.12L21.34-0.12L21.34-6.88L21.34-6.88Q21.34-6.93 21.38-6.96L21.38-6.96L21.38-6.96Q21.41-7 21.46-7L21.46-7L22.35-7L22.35-7Q22.45-7 22.49-6.92L22.49-6.92L25.36-2.20L25.36-2.20Q25.38-2.17 25.40-2.18L25.40-2.18L25.40-2.18Q25.42-2.18 25.42-2.22L25.42-2.22L25.41-6.88ZM30.37 0.08L30.37 0.08Q29.62 0.08 29.05-0.21L29.05-0.21L29.05-0.21Q28.48-0.51 28.17-1.05L28.17-1.05L28.17-1.05Q27.86-1.59 27.86-2.29L27.86-2.29L27.86-4.71L27.86-4.71Q27.86-5.42 28.17-5.96L28.17-5.96L28.17-5.96Q28.48-6.49 29.05-6.79L29.05-6.79L29.05-6.79Q29.62-7.08 30.37-7.08L30.37-7.08L30.37-7.08Q31.11-7.08 31.68-6.79L31.68-6.79L31.68-6.79Q32.24-6.50 32.55-6L32.55-6L32.55-6Q32.86-5.50 32.86-4.87L32.86-4.87L32.86-4.79L32.86-4.79Q32.86-4.74 32.83-4.71L32.83-4.71L32.83-4.71Q32.79-4.67 32.74-4.67L32.74-4.67L31.83-4.67L31.83-4.67Q31.78-4.67 31.75-4.71L31.75-4.71L31.75-4.71Q31.71-4.74 31.71-4.79L31.71-4.79L31.71-4.84L31.71-4.84Q31.71-5.38 31.34-5.73L31.34-5.73L31.34-5.73Q30.98-6.08 30.37-6.08L30.37-6.08L30.37-6.08Q29.76-6.08 29.39-5.71L29.39-5.71L29.39-5.71Q29.02-5.35 29.02-4.75L29.02-4.75L29.02-2.25L29.02-2.25Q29.02-1.65 29.41-1.28L29.41-1.28L29.41-1.28Q29.80-0.92 30.42-0.92L30.42-0.92L30.42-0.92Q31.02-0.92 31.37-1.24L31.37-1.24L31.37-1.24Q31.71-1.55 31.71-2.10L31.71-2.10L31.71-2.72L31.71-2.72Q31.71-2.77 31.66-2.77L31.66-2.77L30.43-2.77L30.43-2.77Q30.38-2.77 30.34-2.81L30.34-2.81L30.34-2.81Q30.31-2.84 30.31-2.89L30.31-2.89L30.31-3.63L30.31-3.63Q30.31-3.68 30.34-3.71L30.34-3.71L30.34-3.71Q30.38-3.75 30.43-3.75L30.43-3.75L32.74-3.75L32.74-3.75Q32.79-3.75 32.83-3.71L32.83-3.71L32.83-3.71Q32.86-3.68 32.86-3.63L32.86-3.63L32.86-2.35L32.86-2.35Q32.86-1.20 32.19-0.56L32.19-0.56L32.19-0.56Q31.51 0.08 30.37 0.08L30.37 0.08Z"/><path fill="#252530" transform="translate(32.04, 95.3)" d="M3.38-1.84L3.38-1.84Q3.35-1.81 3.36-1.78L3.36-1.78L3.36-1.78Q3.38-1.75 3.42-1.75L3.42-1.75L7.35-1.75L7.35-1.75Q7.42-1.75 7.47-1.70L7.47-1.70L7.47-1.70Q7.53-1.65 7.53-1.58L7.53-1.58L7.53-0.17L7.53-0.17Q7.53-0.10 7.47-0.05L7.47-0.05L7.47-0.05Q7.42 0 7.35 0L7.35 0L0.83 0L0.83 0Q0.75 0 0.70-0.05L0.70-0.05L0.70-0.05Q0.65-0.10 0.65-0.17L0.65-0.17L0.65-1.51L0.65-1.51Q0.65-1.64 0.74-1.73L0.74-1.73L0.74-1.73Q1.45-2.42 2.19-3.24L2.19-3.24L2.19-3.24Q2.93-4.06 3.12-4.26L3.12-4.26L3.12-4.26Q3.52-4.74 3.94-5.18L3.94-5.18L3.94-5.18Q5.26-6.64 5.26-7.35L5.26-7.35L5.26-7.35Q5.26-7.86 4.90-8.19L4.90-8.19L4.90-8.19Q4.54-8.51 3.96-8.51L3.96-8.51L3.96-8.51Q3.38-8.51 3.02-8.19L3.02-8.19L3.02-8.19Q2.65-7.86 2.65-7.32L2.65-7.32L2.65-6.96L2.65-6.96Q2.65-6.89 2.60-6.84L2.60-6.84L2.60-6.84Q2.55-6.79 2.48-6.79L2.48-6.79L0.77-6.79L0.77-6.79Q0.70-6.79 0.65-6.84L0.65-6.84L0.65-6.84Q0.59-6.89 0.59-6.96L0.59-6.96L0.59-7.64L0.59-7.64Q0.64-8.42 1.09-9.03L1.09-9.03L1.09-9.03Q1.54-9.63 2.28-9.95L2.28-9.95L2.28-9.95Q3.03-10.27 3.96-10.27L3.96-10.27L3.96-10.27Q4.99-10.27 5.75-9.88L5.75-9.88L5.75-9.88Q6.51-9.50 6.92-8.85L6.92-8.85L6.92-8.85Q7.34-8.19 7.34-7.40L7.34-7.40L7.34-7.40Q7.34-6.79 7.03-6.15L7.03-6.15L7.03-6.15Q6.73-5.51 6.12-4.77L6.12-4.77L6.12-4.77Q5.67-4.21 5.15-3.65L5.15-3.65L5.15-3.65Q4.63-3.10 3.60-2.06L3.60-2.06L3.38-1.84ZM12.24 0.16L12.24 0.16Q10.64 0.16 9.72-0.73L9.72-0.73L9.72-0.73Q8.79-1.62 8.79-3.16L8.79-3.16L8.79-6.99L8.79-6.99Q8.79-8.50 9.72-9.38L9.72-9.38L9.72-9.38Q10.64-10.27 12.24-10.27L12.24-10.27L12.24-10.27Q13.83-10.27 14.77-9.38L14.77-9.38L14.77-9.38Q15.70-8.50 15.70-6.99L15.70-6.99L15.70-3.16L15.70-3.16Q15.70-1.62 14.77-0.73L14.77-0.73L14.77-0.73Q13.83 0.16 12.24 0.16L12.24 0.16ZM12.24-1.59L12.24-1.59Q12.89-1.59 13.27-1.99L13.27-1.99L13.27-1.99Q13.66-2.39 13.66-3.06L13.66-3.06L13.66-7.05L13.66-7.05Q13.66-7.71 13.27-8.11L13.27-8.11L13.27-8.11Q12.89-8.51 12.24-8.51L12.24-8.51L12.24-8.51Q11.60-8.51 11.22-8.11L11.22-8.11L11.22-8.11Q10.83-7.71 10.83-7.05L10.83-7.05L10.83-3.06L10.83-3.06Q10.83-2.39 11.22-1.99L11.22-1.99L11.22-1.99Q11.60-1.59 12.24-1.59L12.24-1.59ZM19.76-1.84L19.76-1.84Q19.73-1.81 19.75-1.78L19.75-1.78L19.75-1.78Q19.76-1.75 19.81-1.75L19.81-1.75L23.74-1.75L23.74-1.75Q23.81-1.75 23.86-1.70L23.86-1.70L23.86-1.70Q23.91-1.65 23.91-1.58L23.91-1.58L23.91-0.17L23.91-0.17Q23.91-0.10 23.86-0.05L23.86-0.05L23.86-0.05Q23.81 0 23.74 0L23.74 0L17.21 0L17.21 0Q17.14 0 17.09-0.05L17.09-0.05L17.09-0.05Q17.04-0.10 17.04-0.17L17.04-0.17L17.04-1.51L17.04-1.51Q17.04-1.64 17.12-1.73L17.12-1.73L17.12-1.73Q17.84-2.42 18.57-3.24L18.57-3.24L18.57-3.24Q19.31-4.06 19.50-4.26L19.50-4.26L19.50-4.26Q19.91-4.74 20.33-5.18L20.33-5.18L20.33-5.18Q21.65-6.64 21.65-7.35L21.65-7.35L21.65-7.35Q21.65-7.86 21.29-8.19L21.29-8.19L21.29-8.19Q20.92-8.51 20.34-8.51L20.34-8.51L20.34-8.51Q19.76-8.51 19.40-8.19L19.40-8.19L19.40-8.19Q19.04-7.86 19.04-7.32L19.04-7.32L19.04-6.96L19.04-6.96Q19.04-6.89 18.99-6.84L18.99-6.84L18.99-6.84Q18.94-6.79 18.86-6.79L18.86-6.79L17.15-6.79L17.15-6.79Q17.08-6.79 17.03-6.84L17.03-6.84L17.03-6.84Q16.98-6.89 16.98-6.96L16.98-6.96L16.98-7.64L16.98-7.64Q17.02-8.42 17.47-9.03L17.47-9.03L17.47-9.03Q17.92-9.63 18.67-9.95L18.67-9.95L18.67-9.95Q19.42-10.27 20.34-10.27L20.34-10.27L20.34-10.27Q21.37-10.27 22.13-9.88L22.13-9.88L22.13-9.88Q22.90-9.50 23.31-8.85L23.31-8.85L23.31-8.85Q23.72-8.19 23.72-7.40L23.72-7.40L23.72-7.40Q23.72-6.79 23.42-6.15L23.42-6.15L23.42-6.15Q23.11-5.51 22.50-4.77L22.50-4.77L22.50-4.77Q22.05-4.21 21.53-3.65L21.53-3.65L21.53-3.65Q21.01-3.10 19.98-2.06L19.98-2.06L19.76-1.84ZM26.59-10.11L26.59-10.11Q26.67-10.15 26.81-10.15L26.81-10.15L28.57-10.15L28.57-10.15Q28.64-10.15 28.69-10.10L28.69-10.10L28.69-10.10Q28.74-10.05 28.74-9.98L28.74-9.98L28.74-0.17L28.74-0.17Q28.74-0.10 28.69-0.05L28.69-0.05L28.69-0.05Q28.64 0 28.57 0L28.57 0L26.87 0L26.87 0Q26.80 0 26.75-0.05L26.75-0.05L26.75-0.05Q26.69-0.10 26.69-0.17L26.69-0.17L26.69-8.12L26.69-8.12Q26.69-8.15 26.67-8.18L26.67-8.18L26.67-8.18Q26.64-8.21 26.61-8.19L26.61-8.19L25.17-7.80L25.11-7.79L25.11-7.79Q24.98-7.79 24.98-7.95L24.98-7.95L24.94-9.19L24.94-9.19Q24.94-9.34 25.07-9.40L25.07-9.40L26.59-10.11Z"/></g>
</svg>
