<svg xmlns="http://www.w3.org/2000/svg" preserveAspectRatio="xMidYMid" width="21" height="16" viewBox="0 0 21 16"><defs><style>.cls-2 { fill: #ffffff; }</style></defs><path d="M21.01 14.522c0 .798-.63 1.464-1.332 1.464H1.333C.63 15.986 0 15.32 0 14.522V1.53C0 .756.582.117 1.284.09L1.31.01h18.344l.024.08h0c.727 0 1.333.64 1.333 1.44V14.52zM0 15.986zm0 0zm19.387-3.54V3.55L14.08 8l5.307 4.445zm0-10.65H1.624c2.956 2.45 5.913 4.898 8.87 7.374 2.956-2.476 5.912-4.925 8.893-7.375zm0 12.406L12.99 8.904l-1.697 1.438H9.67L7.996 8.93l-6.373 5.272h17.763zM6.907 8L1.624 3.55v8.893L6.907 8z" id="path-1" class="cls-2" fill-rule="evenodd"/></svg>