<svg xmlns="http://www.w3.org/2000/svg" preserveAspectRatio="xMidYMid" width="18" height="13" viewBox="0 0 18 13"><defs><style>.cls-2 { fill: #828c8e; }</style></defs><path d="M14.015 2.03c-.01-.006-.022-.018-.033-.03-.655-.588-1.424-.868-2.31-.835l-.026-.06c.005-.006.01-.006.016-.006.802-.178 1.278-.36 1.42-.557.048-.16-.01-.248-.187-.27-.403.05-.775.132-1.108.26.42-.26.585-.44.492-.535-.416.01-.864.215-1.334.617.175-.287.24-.44.197-.47-.223.15-.42.31-.59.48-.354.38-.638.733-.856 1.053l-.01.027c-.563.875-.956 1.756-1.19 2.654l-.088.066-.017.015c-.34-.406-.743-.748-1.23-1.024-.572-.357-1.243-.698-2.02-1.03-.844-.417-1.702-.764-2.57-1.033-.005.93.47 1.673 1.414 2.213v.016c-.333-.006-.655.044-.966.138.06.865.7 1.46 1.912 1.79l-.006.016c-.475-.027-.868.132-1.174.463.4.748 1.103 1.105 2.124 1.078-.202.1-.36.208-.464.33-.186.188-.246.408-.186.66.22.38.612.556 1.19.53l.033.038-.017.016c-1 .992-2.205 1.438-3.62 1.344l-.02.01c-.864-.005-1.786-.4-2.785-1.194 1.004 1.387 2.336 2.39 3.985 3.018 1.888.6 3.777.644 5.66.13h.033c1.83-.506 3.38-1.546 4.656-3.12.59-.827.96-1.613 1.108-2.368.956.033 1.643-.23 2.07-.793l-.01-.017c-.318.11-.94.077-1.863-.105v-.1c0-.004 0-.004.006 0 1.01-.11 1.604-.423 1.796-.94-.706.264-1.4.268-2.087.022-.125-.915-.573-1.746-1.348-2.5z" id="path-1" class="cls-2" fill-rule="evenodd"/></svg>