<svg width="357" height="350" viewBox="0 0 357 384" xmlns="http://www.w3.org/2000/svg" xmlns:xlink="http://www.w3.org/1999/xlink"><title>Group 43</title><defs><filter x="-50%" y="-50%" width="200%" height="200%" filterUnits="objectBoundingBox" id="a"><feOffset dy="1" in="SourceAlpha" result="shadowOffsetOuter1"/><feGaussianBlur stdDeviation="1" in="shadowOffsetOuter1" result="shadowBlurOuter1"/><feColorMatrix values="0 0 0 0 0 0 0 0 0 0 0 0 0 0 0 0 0 0 0.104797894 0" in="shadowBlurOuter1" result="shadowMatrixOuter1"/><feMerge><feMergeNode in="shadowMatrixOuter1"/><feMergeNode in="SourceGraphic"/></feMerge></filter><filter x="-50%" y="-50%" width="200%" height="200%" filterUnits="objectBoundingBox" id="b"><feOffset dy="1" in="SourceAlpha" result="shadowOffsetOuter1"/><feGaussianBlur stdDeviation="1" in="shadowOffsetOuter1" result="shadowBlurOuter1"/><feColorMatrix values="0 0 0 0 0 0 0 0 0 0 0 0 0 0 0 0 0 0 0.104797894 0" in="shadowBlurOuter1" result="shadowMatrixOuter1"/><feMerge><feMergeNode in="shadowMatrixOuter1"/><feMergeNode in="SourceGraphic"/></feMerge></filter><filter x="-50%" y="-50%" width="200%" height="200%" filterUnits="objectBoundingBox" id="c"><feOffset dy="1" in="SourceAlpha" result="shadowOffsetOuter1"/><feGaussianBlur stdDeviation="1" in="shadowOffsetOuter1" result="shadowBlurOuter1"/><feColorMatrix values="0 0 0 0 0 0 0 0 0 0 0 0 0 0 0 0 0 0 0.104797894 0" in="shadowBlurOuter1" result="shadowMatrixOuter1"/><feMerge><feMergeNode in="shadowMatrixOuter1"/><feMergeNode in="SourceGraphic"/></feMerge></filter><path id="d" d="M68.587 48.146V.136H0v48.01h68.587z"/><filter x="-50%" y="-50%" width="200%" height="200%" filterUnits="objectBoundingBox" id="f"><feOffset dy="1" in="SourceAlpha" result="shadowOffsetOuter1"/><feGaussianBlur stdDeviation="1" in="shadowOffsetOuter1" result="shadowBlurOuter1"/><feColorMatrix values="0 0 0 0 0 0 0 0 0 0 0 0 0 0 0 0 0 0 0.104797894 0" in="shadowBlurOuter1" result="shadowMatrixOuter1"/><feMerge><feMergeNode in="shadowMatrixOuter1"/><feMergeNode in="SourceGraphic"/></feMerge></filter><filter x="-50%" y="-50%" width="200%" height="200%" filterUnits="objectBoundingBox" id="g"><feOffset dy="1" in="SourceAlpha" result="shadowOffsetOuter1"/><feGaussianBlur stdDeviation="1" in="shadowOffsetOuter1" result="shadowBlurOuter1"/><feColorMatrix values="0 0 0 0 0 0 0 0 0 0 0 0 0 0 0 0 0 0 0.104797894 0" in="shadowBlurOuter1" result="shadowMatrixOuter1"/><feMerge><feMergeNode in="shadowMatrixOuter1"/><feMergeNode in="SourceGraphic"/></feMerge></filter><linearGradient x1="50%" y1="0%" x2="50%" y2="100%" id="h"><stop stop-color="#21A464" offset="0%"/><stop stop-color="#228257" offset="100%"/></linearGradient><filter x="-50%" y="-50%" width="200%" height="200%" filterUnits="objectBoundingBox" id="i"><feOffset dy="1" in="SourceAlpha" result="shadowOffsetOuter1"/><feGaussianBlur stdDeviation="1" in="shadowOffsetOuter1" result="shadowBlurOuter1"/><feColorMatrix values="0 0 0 0 0 0 0 0 0 0 0 0 0 0 0 0 0 0 0.104797894 0" in="shadowBlurOuter1" result="shadowMatrixOuter1"/><feMerge><feMergeNode in="shadowMatrixOuter1"/><feMergeNode in="SourceGraphic"/></feMerge></filter><filter x="-50%" y="-50%" width="200%" height="200%" filterUnits="objectBoundingBox" id="j"><feOffset dy="1" in="SourceAlpha" result="shadowOffsetOuter1"/><feGaussianBlur stdDeviation="1" in="shadowOffsetOuter1" result="shadowBlurOuter1"/><feColorMatrix values="0 0 0 0 0 0 0 0 0 0 0 0 0 0 0 0 0 0 0.104797894 0" in="shadowBlurOuter1" result="shadowMatrixOuter1"/><feMerge><feMergeNode in="shadowMatrixOuter1"/><feMergeNode in="SourceGraphic"/></feMerge></filter><path id="k" d="M.11 36.982h28.298V.012H.11v36.97z"/><filter x="-50%" y="-50%" width="200%" height="200%" filterUnits="objectBoundingBox" id="m"><feOffset dy="1" in="SourceAlpha" result="shadowOffsetOuter1"/><feGaussianBlur stdDeviation="1" in="shadowOffsetOuter1" result="shadowBlurOuter1"/><feColorMatrix values="0 0 0 0 0 0 0 0 0 0 0 0 0 0 0 0 0 0 0.104797894 0" in="shadowBlurOuter1" result="shadowMatrixOuter1"/><feMerge><feMergeNode in="shadowMatrixOuter1"/><feMergeNode in="SourceGraphic"/></feMerge></filter><path id="n" d="M0 22.732h31.698V0H0v22.732z"/><filter x="-50%" y="-50%" width="200%" height="200%" filterUnits="objectBoundingBox" id="q"><feOffset dy="1" in="SourceAlpha" result="shadowOffsetOuter1"/><feGaussianBlur stdDeviation="1.5" in="shadowOffsetOuter1" result="shadowBlurOuter1"/><feColorMatrix values="0 0 0 0 0 0 0 0 0 0 0 0 0 0 0 0 0 0 0.104797894 0" in="shadowBlurOuter1" result="shadowMatrixOuter1"/><feMerge><feMergeNode in="shadowMatrixOuter1"/><feMergeNode in="SourceGraphic"/></feMerge></filter><circle id="p" cx="32" cy="32" r="32"/></defs><g fill="none" fill-rule="evenodd"><rect width="80" height="80" rx="8.5" stroke="#CFD9E2" stroke-width=".735" fill="#FFF" stroke-linecap="square" filter="url(#a)" stroke-opacity=".304" transform="translate(260 156)"/><path d="M309.29 203.317c-.998 1.12-2.146 1.757-3.445 1.757h-.214c-.74 0-1.466-.153-2.176-.53-.8-.413-1.423-.976-1.92-1.725-.515-.735-.81-1.51-.81-2.36v-.26c0-.835.174-1.627.575-2.376.427-.818 1.012-1.462 1.78-1.968.756-.503 1.57-.757 2.467-.757h.084c.815 0 1.586.17 2.314.545.74.4 1.347.952 1.817 1.672.457.72.728 1.5.815 2.346.014.176.02.33.02.503 0 1.148-.434 2.185-1.304 3.15m4.516-7.74c-.812-1.41-1.957-2.54-3.384-3.392-1.067-.627-2.167-1.024-3.423-1.195v-4.482c1.255-.534 2.015-1.716 2.015-3.096 0-1.88-1.498-3.405-3.36-3.405-1.864 0-3.34 1.524-3.34 3.405 0 1.38.764 2.562 2.02 3.096v4.482c-1.1.146-2.078.46-3.022.943-1.93-1.48-8.278-6.332-11.98-9.165.09-.32.145-.65.145-.996 0-2.083-1.676-3.772-3.74-3.772-2.066 0-3.738 1.69-3.738 3.772 0 2.083 1.67 3.77 3.735 3.77.703 0 1.355-.206 1.917-.55l.78.6 10.732 7.805c-.568.526-1.06 1.123-1.484 1.795-.857 1.368-1.346 2.872-1.346 4.514v.342c0 1.153.182 2.242.552 3.264.326.892.784 1.704 1.373 2.437l-3.57 3.603c-.317-.118-.654-.182-1-.182-.77 0-1.496.305-2.042.855-.545.55-.846 1.28-.846 2.06s.3 1.51.846 2.06c.546.552 1.27.855 2.042.855.77 0 1.496-.303 2.042-.854.545-.55.846-1.282.846-2.06 0-.3-.046-.595-.133-.875l3.68-3.715c.506.35 1.05.638 1.637.893 1.155.505 2.43.803 3.827.803h.255c1.544 0 3-.356 4.368-1.105 1.442-.79 2.588-1.867 3.44-3.248.858-1.385 1.347-2.91 1.347-4.594v-.083c0-1.656-.397-3.185-1.194-4.584" fill="#F47721"/><rect width="100" height="100" rx="9" stroke="#CFD9E2" stroke-width=".735" fill="#FFF" stroke-linecap="square" opacity=".85" filter="url(#b)" stroke-opacity=".304" transform="translate(180 216)"/><g fill="#0F81DE"><path d="M219.908 242.228l-14.514 9.566 10.035 8.113 14.634-9.122-10.156-8.557z"/><path d="M205.394 268.02l14.514 9.566 10.156-8.557-14.634-9.123-10.036 8.113zM230.064 269.03l10.156 8.556 14.514-9.566-10.036-8.113-14.634 9.122zM254.734 251.794l-14.514-9.566-10.156 8.557 14.634 9.122 10.036-8.113z"/><path d="M230.094 270.87l-10.186 8.532-4.36-2.873v3.22l14.546 8.804 14.544-8.804v-3.22l-4.358 2.872-10.186-8.532z"/></g><rect width="100" height="100" rx="9" stroke="#CFD9E2" stroke-width=".735" fill="#FFF" stroke-linecap="square" filter="url(#c)" stroke-opacity=".304" transform="translate(39 24)"/><g transform="translate(55 50.018)"><mask id="e" fill="#fff"><use xlink:href="#d"/></mask><path d="M28.54 5.372c2.213-2.305 5.292-3.734 8.7-3.734 4.527 0 8.476 2.524 10.58 6.272 1.828-.816 3.852-1.27 5.98-1.27 8.167 0 14.787 6.678 14.787 14.916 0 8.24-6.62 14.918-14.787 14.918-.996 0-1.97-.1-2.913-.29-1.852 3.303-5.382 5.536-9.434 5.536-1.695 0-3.3-.392-4.728-1.09-1.877 4.418-6.253 7.516-11.352 7.516-5.31 0-9.836-3.36-11.573-8.073-.76.16-1.546.245-2.353.245C5.125 40.318 0 35.14 0 28.75c0-4.28 2.3-8.02 5.724-10.02-.705-1.62-1.096-3.41-1.096-5.29 0-7.347 5.964-13.304 13.32-13.304 4.32 0 8.16 2.053 10.593 5.236" fill="#0092DA" mask="url(#e)"/></g><path d="M64.934 75.05c-.044.114.015.137.03.156.128.094.258.16.39.237.7.37 1.36.48 2.05.48 1.408 0 2.282-.75 2.282-1.954v-.024c0-1.114-.986-1.52-1.91-1.812l-.122-.038c-.697-.227-1.3-.422-1.3-.882v-.023c0-.393.353-.682.898-.682.606 0 1.325.202 1.787.458 0 0 .136.088.186-.044l.286-.77c.026-.074-.02-.13-.068-.16-.53-.32-1.26-.54-2.016-.54h-.14c-1.29 0-2.188.78-2.188 1.894v.023c0 1.174.992 1.556 1.92 1.82l.15.047c.678.208 1.26.387 1.26.863v.024c0 .436-.38.76-.99.76-.237 0-.994-.004-1.812-.52-.1-.06-.155-.1-.232-.147-.04-.025-.14-.07-.185.063l-.276.77zM85.53 75.05c-.043.114.015.137.03.156.13.094.26.16.39.237.7.37 1.36.48 2.052.48 1.407 0 2.28-.75 2.28-1.954v-.024c0-1.114-.986-1.52-1.91-1.812l-.12-.038c-.7-.227-1.3-.422-1.3-.882v-.023c0-.393.35-.682.897-.682.605 0 1.323.202 1.786.458 0 0 .137.088.186-.044.028-.072.262-.702.287-.77.025-.074-.02-.13-.07-.16-.53-.32-1.26-.54-2.016-.54h-.14c-1.288 0-2.187.78-2.187 1.894v.023c0 1.174.993 1.556 1.92 1.82l.15.047c.678.208 1.262.387 1.262.863v.024c0 .436-.38.76-.993.76-.238 0-.994-.004-1.812-.52-.1-.06-.157-.1-.232-.147-.025-.016-.144-.063-.184.063l-.28.77zM99.59 72.69c0 .68-.126 1.218-.376 1.597-.248.375-.622.56-1.143.56-.52 0-.893-.185-1.137-.56-.247-.38-.372-.916-.372-1.596s.126-1.215.372-1.59c.245-.37.617-.552 1.14-.552.52 0 .894.18 1.142.552.25.375.377.91.377 1.59m1.175-1.262c-.114-.39-.295-.733-.534-1.02-.238-.287-.54-.518-.9-.685-.36-.168-.783-.253-1.26-.253-.476 0-.9.085-1.26.253-.358.167-.66.398-.9.686-.24.286-.42.63-.534 1.018-.116.39-.174.813-.174 1.263 0 .45.058.876.174 1.263.114.39.294.733.534 1.02.24.287.543.517.902.68.36.164.782.246 1.26.246.475 0 .897-.083 1.257-.247.358-.163.66-.393.9-.68.24-.286.42-.63.535-1.02.115-.388.174-.813.174-1.262 0-.45-.06-.873-.175-1.262M110.41 74.663c-.04-.114-.15-.07-.15-.07-.17.065-.353.125-.547.155-.196.03-.412.046-.643.046-.568 0-1.02-.17-1.344-.503-.324-.333-.506-.874-.504-1.605.002-.664.162-1.164.45-1.546.287-.38.723-.575 1.304-.575.484 0 .854.057 1.24.178 0 0 .094.04.137-.08.104-.287.18-.49.29-.803.03-.09-.046-.127-.074-.138-.154-.06-.512-.158-.785-.2-.253-.037-.55-.057-.88-.057-.493 0-.933.084-1.31.252-.375.166-.693.397-.946.684-.253.288-.444.632-.57 1.02-.13.39-.193.815-.193 1.266 0 .974.262 1.762.782 2.337.52.58 1.3.873 2.317.873.602 0 1.22-.122 1.663-.296 0 0 .085-.04.048-.14l-.29-.797zM112.464 72.038c.057-.378.16-.692.322-.937.243-.37.614-.577 1.136-.577.522 0 .866.206 1.114.578.164.247.236.573.264.94l-2.836-.002zm3.954-.83c-.1-.377-.347-.758-.508-.93-.256-.277-.507-.47-.755-.577-.324-.138-.713-.23-1.14-.23-.495 0-.946.084-1.312.256-.366.17-.673.406-.915.698-.24.292-.423.638-.538 1.033-.116.39-.175.817-.175 1.268 0 .458.06.886.18 1.27.122.387.315.727.576 1.01.263.284.6.506 1 .662.4.155.887.235 1.445.233 1.148-.003 1.753-.26 2.002-.397.044-.025.085-.068.034-.19l-.26-.728c-.04-.108-.15-.07-.15-.07-.285.107-.688.296-1.63.294-.618 0-1.075-.183-1.36-.468-.295-.29-.44-.718-.464-1.322l3.975.003s.106 0 .117-.104c.004-.043.136-.817-.12-1.712zM80.626 72.038c.056-.378.16-.692.32-.937.246-.37.615-.577 1.138-.577.522 0 .867.206 1.115.578.162.247.233.573.262.94l-2.836-.002zm3.953-.83c-.1-.377-.347-.758-.51-.93-.255-.277-.505-.47-.754-.577-.324-.138-.712-.23-1.138-.23-.497 0-.947.084-1.313.256-.366.17-.674.406-.915.698-.24.292-.423.638-.54 1.033-.115.39-.173.817-.173 1.268 0 .458.06.886.18 1.27.12.387.315.727.576 1.01.262.284.598.506 1 .662.4.155.886.235 1.443.233 1.15-.003 1.753-.26 2.002-.397.045-.025.086-.068.035-.19l-.26-.728c-.04-.108-.15-.07-.15-.07-.286.107-.69.296-1.633.294-.615 0-1.073-.183-1.36-.468-.293-.29-.438-.718-.462-1.322l3.975.003s.104 0 .115-.104c.004-.043.136-.817-.12-1.712zM72.033 74.642c-.156-.124-.177-.156-.23-.236-.078-.122-.12-.296-.12-.517 0-.35.117-.602.356-.77-.003 0 .342-.3 1.152-.288.57.007 1.08.092 1.08.092v1.807s-.505.11-1.074.144c-.808.05-1.168-.233-1.165-.232m1.582-2.794c-.162-.012-.37-.018-.62-.018-.34 0-.67.042-.98.126-.31.084-.59.213-.83.384-.242.173-.435.394-.576.656-.142.263-.214.57-.214.916 0 .353.06.658.183.908.12.25.294.46.517.622.22.16.494.28.81.35.312.072.665.11 1.053.11.408 0 .813-.036 1.207-.102.39-.067.868-.163 1-.195.133-.03.28-.07.28-.07.098-.025.09-.13.09-.13l-.002-3.635c0-.8-.213-1.39-.63-1.756-.418-.366-1.033-.55-1.827-.55-.3 0-.778.04-1.066.098 0 0-.868.168-1.225.448 0 0-.078.05-.036.16l.282.755c.036.098.13.064.13.064s.032-.013.067-.034c.763-.415 1.73-.403 1.73-.403.43 0 .76.087.983.257.217.167.327.417.327.947v.17c-.34-.05-.655-.08-.655-.08M105.68 69.8c.03-.09-.034-.134-.06-.144-.068-.025-.407-.096-.667-.114-.5-.03-.777.054-1.025.166-.247.11-.52.29-.67.496l-.002-.485c0-.068-.048-.12-.114-.12h-1.02c-.066 0-.113.052-.113.12v5.93c0 .066.052.12.12.12h1.044c.067 0 .12-.054.12-.12v-2.963c0-.4.044-.795.132-1.044.086-.247.203-.443.348-.584.145-.143.31-.24.492-.297.184-.056.39-.075.532-.075.21 0 .437.054.437.054.077.008.12-.04.146-.108.068-.18.263-.727.3-.834" fill="#FFF"/><path d="M95.875 67.05c-.127-.038-.24-.064-.393-.092-.153-.028-.334-.042-.54-.042-.72 0-1.285.204-1.683.605-.396.4-.666 1.006-.8 1.803l-.05.27h-.9s-.112-.004-.134.116l-.15.825c-.01.08.025.128.13.128h.88l-.893 4.976c-.07.4-.15.73-.238.98-.086.246-.172.43-.277.564-.102.13-.197.226-.364.282-.137.045-.295.066-.467.066-.096 0-.224-.016-.32-.035-.094-.018-.143-.04-.214-.07 0 0-.102-.038-.144.065-.033.085-.267.73-.295.81-.028.077.01.14.06.157.118.04.205.067.364.105.22.052.408.055.582.055.366 0 .7-.05.976-.15.278-.102.52-.277.735-.513.23-.256.377-.524.516-.89.137-.362.254-.812.348-1.336l.896-5.067h1.31s.11.004.132-.116l.148-.826c.01-.078-.023-.127-.13-.127h-1.27c.006-.03.064-.476.21-.897.062-.18.18-.324.28-.424.096-.098.21-.167.332-.208.126-.04.27-.06.426-.06.12 0 .237.014.327.032.122.026.17.04.202.05.13.04.146 0 .173-.06l.303-.836c.03-.09-.044-.128-.073-.14M78.115 75.65c0 .066-.047.12-.114.12h-1.053c-.066 0-.114-.054-.114-.12v-8.486c0-.066.048-.12.114-.12H78c.068 0 .115.054.115.12v8.485z" fill="#FFF"/><g><rect width="80" height="80" rx="8.5" stroke="#CFD9E2" stroke-width=".735" fill="#FFF" stroke-linecap="square" filter="url(#f)" stroke-opacity=".304" transform="translate(54 201)"/><path fill="#59473C" d="M77.948 248.748v-.003.003M79.138 250.51h.003l-.002-.002h-.003.003"/><path d="M112.844 248.48c-.01-.068-.025-.13-.04-.19-.01-.04-.023-.08-.038-.116-.03-.088-.06-.175-.102-.256-.086-.17-.204-.326-.347-.453-.142-.127-.305-.22-.464-.28l-.005-.003c-.17-.062-.332-.09-.476-.098-.043-.003-.082-.002-.122 0 .085-.79-.215-1.346-.396-1.6l.03-.037c.17-.208.312-.405.428-.6l.022-.037c.09-.17.144-.34.173-.495.023-.132.03-.25.027-.356h.002v-.056h-.004l-.002-.036v-.022c-.004-.02-.006-.044-.008-.067-.005-.045-.01-.09-.02-.14-.04-.234-.122-.537-.322-.852-.1-.157-.23-.314-.395-.454-.164-.14-.363-.263-.584-.352h.003l-.044-.018c-.51-.572-1.06-.996-1.543-1.31-.25-.162-.48-.295-.676-.403-.193-.106-.355-.19-.447-.24-.208-.115-.36-.18-.433-.21-.17-.075-.295-.136-.372-.18-.06-.034-.09-.057-.1-.066l-.008-.006c0-.002-.01-.013-.022-.053-.014-.04-.032-.11-.05-.214-.028-.16-.05-.398-.073-.713-.035-.508-.065-1.21-.123-2.16-.018-.302-.05-.584-.095-.85-.072-.424-.177-.803-.31-1.143h-.002c-.03-.08-.062-.154-.096-.228h-.002v-.002l-.06-.123v.003c-.025-.05-.05-.098-.077-.147v-.002l-.053-.093c-.044-.072-.09-.15-.15-.23l-.015-.023-.03-.04-.02-.024c-.103-.13-.212-.25-.323-.357-.077-.21-.202-.52-.388-.868-.165-.306-.376-.64-.657-.963-.098-.11-.206-.22-.323-.323l.03-.04c.04-.055 1.03-1.37 1.73-3.007 1.302-3.048.53-4.72-.347-5.586l-.024-.025-.025-.022c-.83-.71-1.882-1.07-3.127-1.07-2.58 0-5.297 1.582-6.006 2.024l-1.556-1.324-.007-.005c-.14-.117-.287-.217-.445-.303-.157-.085-.324-.155-.496-.21-.347-.11-.718-.16-1.106-.16-.778.002-1.627.198-2.533.55-1.356.528-2.843 1.413-4.367 2.59-1.522 1.176-3.078 2.645-4.553 4.347-1.804 2.08-3.24 4.222-4.233 6.21-.496.994-.88 1.95-1.144 2.842-.263.895-.404 1.726-.405 2.48 0 .548.075 1.057.244 1.513.074.2.168.39.28.565.143.227.318.432.525.607l.005.003 1.8 1.45-.007.018-.04.097-.055.143-.035.1-.05.145-.03.1c-.014.05-.028.1-.04.15-.01.033-.02.066-.027.1-.013.05-.024.103-.035.154-.008.032-.015.066-.02.1-.012.052-.02.104-.03.157l-.007.044-.01.058-.02.162c-.003.033-.008.066-.01.1l-.007.07c-.004.034-.006.067-.008.1l-.006.092c-.004.068-.005.137-.006.205l-.002.06v.024c0 .046.003.09.004.136.002.07.005.14.01.21l.007.095c0 .025.002.05.004.074.005.05.012.098.018.148l.01.09c.004.017.005.035.008.052v.012c.006.03.01.063.017.094.005.034.013.068.02.103l.013.076c.005.022.008.04.012.053l.022.097.028.122v.003c.006.017.01.028.013.042l.03.11.034.113c.004.018.01.033.014.046l.02.065.002.003v.003l.01.027.04.118.014.035c.012.032.022.057.03.074l.01.03c.006.012.01.022.015.037l.012.03.01.025.01.023c.005.012.01.02.013.03l.013.03c.01.025.022.048.033.072l.053.115-.005-.008.004.01.014.03.046.088v.002c.014.027.034.067.062.118v.002l.003.003-.002-.002.013.02c.017.032.03.057.042.075l.013.024.004.004.027.047c.01.018.023.04.038.062l-.002-.002.015.023.038.06.027.04v.002h.002c.015.026.036.06.064.1l.003.004.002.002.012.017c.01.017.023.034.033.048l.038.054.002.003.065.09.002.002h.002l.01.016.034.044.048.06.004.005v.002l.064.08.003.002.008.01c.016.016.03.033.042.048l.055.062-.003-.003c.017.02.04.047.073.082l.002.002v.002l-.002-.004.003.004.004.003.047.05.06.06h-.002l.064.066.006.005.055.055.066.063.006.007.053.048.008.01.004.003.005.005.092.08.03.03v-.002l.002.002.002.002.054.046.007.006h.002l.004.004c.035.03.07.056.104.082l.043.034.002.002c.006.005.023.02.05.04l.005.003.016.013.127.09.01.008.003.002.003.002.053.037h.004c.054.038.108.073.162.108l.003.002.03.02.022.012.03.018.133.08.012.006.005.003c.017.008.03.015.036.02l.008.004.007.003.038.02.113.06.032.017.004.002.04.02.02.01c.04.02.08.037.12.056l.063.03.035.015.02.008.012.006c.063.028.122.052.175.073l.004.003.033.012.003.002c.073.028.144.053.21.076l.01.004.038.012c.035.01.07.02.105.032l.05.016.06.02.018.004h.006l.008.003c.034.01.068.017.1.026l.018.004.113.03.01.002.027.005.053.01.017.004c.054.01.107.023.162.033l.013.002h.004l.003.002c.084.015.167.028.25.04h.017-.005c.074.01.145.018.216.025h.002l.026.003.028.003c.068.006.137.01.205.012l.02.003h.05c.04.003.083.003.124.003l.024.045v.004c.15.286.308.57.474.85 2.568 4.982 8.36 8.378 14.48 8.378 6.12 0 12.054-4.742 14.002-10.405.087-.218.165-.43.234-.637.227-.296.394-.595.492-.9.117-.363.126-.728.074-1.02M110.09 257.842c-.065.043-.133.064-.203.064-.105 0-.195-.037-.27-.11-.077-.074-.115-.17-.115-.29 0-.112.033-.207.098-.285.066-.078.156-.117.27-.117.073 0 .136.015.19.045.086.048.14.13.16.25h-.174c-.01-.057-.033-.094-.067-.113-.03-.018-.06-.027-.095-.027-.052 0-.094.02-.127.063-.033.042-.05.106-.05.19s.02.145.055.183c.037.038.08.057.13.057.048 0 .083-.013.107-.038.024-.025.04-.057.046-.095h.17c-.018.107-.06.182-.126.225zm-.623-.73c-.11.11-.164.24-.164.392 0 .157.055.29.167.4.11.11.244.164.4.164.156 0 .29-.055.4-.165.11-.11.165-.244.165-.4 0-.15-.055-.28-.164-.392-.11-.11-.244-.167-.4-.167-.158 0-.292.056-.403.168zm.884.878c-.133.128-.293.192-.48.192-.193 0-.356-.066-.488-.196-.133-.13-.2-.29-.2-.482 0-.198.073-.362.216-.493.134-.122.29-.183.472-.183.19 0 .35.066.485.198.134.133.2.292.2.48 0 .192-.067.354-.204.485z" fill="#59473C"/><path d="M111.89 248.71v-.002s.002-.246-.155-.447l-.003-.005-.03-.033-.01-.012c-.016-.017-.035-.033-.055-.05-.037-.028-.078-.055-.125-.077-.025-.012-.052-.023-.08-.032-.078-.025-.17-.04-.277-.043-.078-.002-.166.006-.262.02l-.117.02-.02.004.012.026.027.066.014.036.07.194s-.002.016-.01.046l-.005.016c-.034.115-.133.384-.38.75-.043.06-.09.127-.14.194-.705.923-2.306 2.31-5.9 3.417-1.227.327-2.377.478-3.375.478-1.476 0-2.623-.324-3.207-.878-.05-.048-.097-.098-.143-.148-.033-.037-.065-.075-.096-.113-.01-.015-.02-.03-.032-.043-.265-.352-.413-.755-.457-1.156-.055-.488.04-.973.256-1.363.176-.315.43-.57.745-.71.155-.07.324-.114.506-.124.04-.002.088-.003.15-.003l.503.004h.07c.702 0 1.813-.032 3.132-.276 2.4-.44 5.49-1.582 8.055-4.508l.006-.012v-.004c-.017-.217-.096-.602-.41-.87-.054-.048-.117-.09-.186-.13-.04-.022-.082-.042-.127-.06l-.127-.057c-.055-.026-.108-.052-.155-.078l-.006-.008-.072-.082c-.89-1.028-2.005-1.552-2.455-1.8-.212-.117-.343-.166-.343-.166-.96-.427-1.113-.588-1.214-2.055-.036-.526-.065-1.223-.123-2.164-.008-.123-.02-.24-.03-.352l-.01-.08c-.012-.108-.027-.213-.043-.313l-.005-.027-.007-.03c-.015-.08-.03-.156-.046-.23l-.022-.096-.06-.23c-.012-.037-.025-.073-.036-.11l-.042-.12-.043-.113c-.017-.046-.037-.088-.056-.13l-.02-.048c-.008-.015-.015-.028-.02-.042l-.008-.014-.02-.04-.002-.004-.05-.096-.006-.01-.017-.03-.02-.036-.004-.007c-.035-.06-.07-.115-.108-.168l-.028-.04c-.04-.05-.082-.098-.123-.143l-.018-.02-.02-.02c-.03-.032-.06-.062-.09-.09l-.04-.04c-.038-.035-.077-.07-.116-.102l-.002-.005-.002-.007-.003-.01-.004-.013-.005-.014-.008-.022-.004-.013-.01-.03-.003-.01c-.02-.06-.047-.135-.08-.223l-.004-.007c-.01-.02-.017-.044-.027-.067l-.004-.01-.03-.073-.002-.002c-.025-.06-.055-.124-.085-.19l-.034-.066-.07-.14c-.014-.028-.03-.055-.045-.083-.023-.046-.048-.09-.075-.136l-.054-.09c-.027-.044-.055-.088-.085-.132l-.06-.09c-.033-.046-.067-.09-.1-.134l-.068-.085c-.038-.048-.08-.093-.12-.14l-.064-.068-.06-.056c-.047-.047-.094-.094-.144-.137l-.007-.004-.028-.022c-.066-.054-.133-.106-.205-.152l-.013-.008-.096-.06h-.003l-.012-.007-.086-.045-.016-.008.006.004c-.03-.016-.086-.037-.157-.058l-.082-.023c-.145-.04-.34-.078-.57-.11-.015 0-.03-.003-.044-.005-.192-.024-.403-.043-.626-.05-.075-.003-.15-.005-.227-.004-.036 0-.073.003-.11.004h-.044c-.175.006-.35.016-.525.04h-.01c-.226.03-.45.077-.66.145.04-.09.166-.198.294-.29.158-.118.32-.21.32-.21-.096.02-.195.045-.293.074l-.095.027-.06.02-.02.006-.05.018c-.49.167-.95.405-1.206.546l-.096.054-.016.01-.08.02c.154-.388.422-.618.63-.75l.106-.06.033-.016c.03-.015.057-.027.08-.037.05-.02.083-.03.083-.03-.023.002-.045.008-.068.013l-.06.01c-.027.007-.057.012-.085.018-.017.005-.035.008-.052.01-.547.13-1.018.376-1.412.66-.273.194-.51.406-.705.61l-.174.06c-.593.2-1.266.45-1.968.762-.26.115-.523.238-.788.37-.206.103-.413.212-.62.326-.147.082-.295.167-.442.254-1.058.632-2.08 1.423-2.897 2.416l-.09.106c-.07.09-.138.182-.205.274-.028.038-.057.074-.084.112-.033.047-.064.098-.097.146-.148.22-.29.447-.416.685-.094.178-.18.36-.26.547l-.012.022c-.166.39-.303.802-.404 1.24-.05.217-.092.442-.124.672-.01.06-.018.122-.025.184l-.005.032c-.028.25-.043.507-.05.77l-.002.156c0 .132.004.265.01.4.005.123.013.248.023.375l.003.027c.004.062.008.124.015.186.007.07.017.144.026.216l.007.05c.018.14.04.283.063.428l.004.023c.025.145.054.29.085.44.012.06.026.12.04.183l.01.045.025.103c.04.164.083.33.13.495l.04.14c.042.145.087.292.136.44 0 0-.05-.192-.07-.48-.004-.068-.007-.14-.007-.216 0-.167.013-.352.05-.545l.03-.143.02-.063c.024-.09.053-.18.09-.27l.06.175.005.02.003.027.015.12c.01.092.024.195.04.308.014.113.032.235.052.363.085.54.215 1.187.403 1.73 0 0-.105-1.016.054-1.152 0 0 .54 1.837.91 2.51.05.087.094.156.135.197l-.032-.184-.17-1.037-.01-.108c.266.4.56.81.89 1.227.09.116.183.232.28.348-.466.517-.867 1.217-1.117 2.025-.04.13-.075.262-.107.396-.018.076-.034.154-.05.233-.005.024-.01.05-.013.074-.01.055-.02.11-.028.166-.005.03-.01.057-.013.085-.01.057-.015.113-.022.17l-.01.078c-.006.08-.013.16-.018.242v.007c-.005.082-.008.164-.01.246v.08c0 .058 0 .117.003.176l.003.09c.002.06.006.118.01.178l.006.08c.007.087.016.173.028.26v.01l.03.2c.012.07.025.136.04.203l.004.028.003.017c.017.082.036.164.057.246.007.027.015.053.02.08.017.055.032.112.05.168.008.03.02.063.03.094.015.05.032.103.05.154.01.033.023.066.035.1.017.05.036.1.056.15l.04.1.066.15.045.1.076.154.046.093c.03.057.06.114.093.17.014.027.027.052.042.077.095.165.2.33.312.492.017.024.035.05.053.072.04.058.082.115.125.17.022.03.046.06.07.09.04.05.08.102.122.153l.08.095c.04.048.084.097.127.146l.088.096c.044.048.09.096.136.143l.092.095.15.145.094.09c.057.052.117.104.176.156.028.025.055.05.084.074.09.076.18.152.275.227-.002 0-.06-.064-.14-.177l-.003-.003c-.015-.02-.032-.044-.048-.07l-.006-.006-.054-.083-.003-.005c-.02-.03-.04-.064-.06-.1-.16-.277-.332-.67-.374-1.126.056.058.112.113.17.17.07.105.16.237.263.384.034.05.07.1.108.152.15.21.324.44.51.67.225.274.468.548.712.78-.002-.003-.31-.478-.435-.8-.034-.09-.055-.17-.05-.22l.068.052.067.053.167.17.033.033.1.1.002.003.128.13c.4.394.93.898 1.298 1.165.122.09.226.153.3.176l-.578-.777c1.18.728 5.734 1.29 9.93-.476.506-.212 1.007-.46 1.497-.745.295-.172.586-.356.87-.556l.043-.03c.2-.142.396-.292.59-.45l.005-.002c.146-.118.29-.24.43-.366.238-.212.472-.434.696-.672h.002c.013-.016.026-.03.04-.044.22-.245.426-.494.614-.745.248-.33.467-.666.66-.998l.015-.025.137-.243.013-.024c.015-.027.027-.054.04-.08.063-.116.124-.232.18-.346l.04-.083.085-.182.062-.14.066-.15c.038-.09.075-.18.11-.27l.04-.104.077-.205c.01-.033.022-.064.033-.095l.01-.03c.03-.085.06-.17.086-.252l.005-.018c.125-.146.218-.282.29-.41l.032-.054c.16-.3.192-.552.168-.77M85.507 248.794c-.005-.02-.01-.038-.018-.057l.003-.002c-.086-.27-.16-.55-.224-.836l-.015-.06c-.047.02-.094.09-.138.183-.016.035-.032.073-.048.113-.113.29-.198.685-.198.685-.006-.127-.008-.26-.01-.393v-.047c0-.135.002-.273.006-.41v-.05c.005-.153.01-.307.02-.455 0-.02 0-.038.002-.057v-.01l.003-.052.004-.076.023-.34.02-.278.004-.027c0-.014.002-.027.003-.04l.003-.04v-.003l.006-.065v-.006l.006-.056.008-.09v-.007l.007-.066.008-.083.005-.043v-.002l.004-.037.008-.07.002-.02v-.005l.003-.02v-.014l.002-.002-.003.002-.026.03c-.023.027-.047.052-.068.08l-.024.033c-.025.035-.048.072-.07.11l-.012.02c-.026.048-.05.1-.074.15l-.003.007-.01.023-.015.037c-.012.032-.026.063-.037.095v.002l-.002.003-.003.012-.004.01c-.02.05-.034.1-.048.15-.04.14-.067.27-.087.378l-.017.107-.02.15v.003l-.002.018v-.02c-.004-.04-.004-.08-.006-.12-.004-.086-.01-.17-.01-.256-.002-.07 0-.14.002-.21v-.068c.002-.032.002-.064.003-.097 0-.03.005-.06.006-.09v-.003l.003-.033v-.01c.004-.037.006-.074.008-.11l.004-.043.002-.026v-.003l.003-.036c0-.014.003-.03.004-.043.005-.054.012-.107.018-.16v-.01l.014-.118v-.006l.002-.01c.01-.082.024-.16.037-.24l.003-.022.004-.022.007-.045c.02-.13.046-.258.073-.384l.004-.015c.023-.106.048-.212.074-.316l.004-.013.037-.135.003-.007c.02-.067.036-.135.055-.2v-.002l.004-.01.036-.114v-.003l.003-.007.022-.07.035-.11.01-.034.214-.524c.01-.022.02-.043.028-.065l.004-.01.01-.028.07-.174c.035-.083.068-.164.098-.24l.15-.362.034-.082v-.004l-.003-.002c-.01-.006-.102-.052-.25-.118-.17-.074-.413-.172-.707-.266-.094-.03-.193-.06-.296-.086-.124-.034-.252-.065-.387-.09-.034-.008-.07-.013-.104-.02-.112-.02-.226-.036-.343-.048h-.006c-.08-.01-.16-.02-.24-.024-.065-.004-.128-.008-.193-.01l-.093.003c-.03 0-.06 0-.09.002-.087.002-.174.01-.26.018-.042.004-.083.007-.125.013-.186.028-.367.067-.544.115l-.03.01c-.32.086-.623.206-.907.353-.097.05-.19.103-.283.16-.027.016-.052.032-.078.05l-.095.06c-.277.187-.53.402-.758.64l-.01.01c-.195.205-.372.43-.526.666-.044.07-.087.138-.127.208-.048.083-.094.167-.136.253-.08.162-.15.33-.212.5-.02.06-.042.122-.06.183-.004.01-.007.023-.01.035-.12.4-.187.818-.192 1.248 0 .085 0 .17.004.255l.002.032c.003.067.008.135.014.202.008.082.018.165.03.248l.008.04c.01.064.02.128.034.192l.008.033.01.044c.01.05.02.1.034.15l.003.01v.004l.022.075c.012.044.024.09.038.133l.03.094.043.122.038.097.01.024.012.034.01.026.013.03c.013.034.03.067.044.1.015.035.03.07.048.105l.05.1.015.027.037.07c.018.035.038.068.058.102l.053.09c.01.018.02.035.032.05.01.018.022.035.033.052l.055.085c.023.034.048.068.072.1l.056.08.08.1c.018.025.037.048.056.072l.086.1c.02.02.038.043.057.065l.094.1.057.057.103.1.055.05c.036.034.073.066.11.098l.055.045c.04.033.078.065.12.096l.05.04c.042.032.085.063.128.093l.048.034.137.09c.016.01.03.02.046.028.048.03.096.06.145.087l.044.023c.05.028.102.055.153.082l.04.02.16.076.036.015c.057.026.114.048.17.07l.03.013c.06.024.12.046.18.066l.027.01c.062.02.124.04.187.057l.023.006.195.05.017.003c.068.016.135.03.203.043l.014.003.1.014.108.018h.01c.07.01.143.018.216.024h.006c.074.008.148.012.22.014h.005c.226.01.456 0 .688-.025.055-.006.11-.012.166-.02.072-.01.148-.024.223-.04.104-.02.208-.046.312-.075.092-.025.184-.053.274-.083.14-.048.28-.1.414-.157.4-.17.746-.374.945-.562 0 0-.224-.613-.427-1.24l-.066-.204M102.513 231.327" fill="#856249"/><path d="M111.89 248.71v-.002s.002-.246-.155-.447l-.003-.005-.03-.033-.01-.012c-.016-.017-.035-.033-.055-.05-.037-.028-.078-.055-.125-.077-.025-.012-.052-.023-.08-.032-.078-.025-.17-.04-.277-.043-.078-.002-.166.006-.262.02l-.117.02-.02.004.012.026.027.066.014.036.07.194s-.002.016-.01.046l-.005.016c-.034.115-.133.384-.38.75-.043.06-.09.127-.14.194-.705.923-2.306 2.31-5.9 3.417-1.227.327-2.377.478-3.375.478-1.476 0-2.623-.324-3.207-.878-.05-.048-.097-.098-.143-.148-.033-.037-.065-.075-.096-.113-.01-.015-.02-.03-.032-.043-.265-.352-.413-.755-.457-1.156-.055-.488.04-.973.256-1.363.176-.315.43-.57.745-.71.155-.07.324-.114.506-.124.04-.002.088-.003.15-.003l.503.004h.07c.702 0 1.813-.032 3.132-.276 2.4-.44 5.49-1.582 8.055-4.508l.006-.012v-.004c-.017-.217-.096-.602-.41-.87-.054-.048-.117-.09-.186-.13-.04-.022-.082-.042-.127-.06l-.127-.057c-.055-.026-.108-.052-.155-.078l-.006-.008-.072-.082c-.89-1.028-2.005-1.552-2.455-1.8-.212-.117-.343-.166-.343-.166-.96-.427-1.113-.588-1.214-2.055-.036-.526-.065-1.223-.123-2.164-.008-.123-.02-.24-.03-.352l-.01-.08c-.012-.108-.027-.213-.043-.313l-.005-.027-.007-.03c-.015-.08-.03-.156-.046-.23l-.022-.096-.06-.23c-.012-.037-.025-.073-.036-.11l-.042-.12-.043-.113c-.017-.046-.037-.088-.056-.13l-.02-.048c-.008-.015-.015-.028-.02-.042l-.008-.014-.02-.04-.002-.004-.05-.096-.006-.01-.017-.03-.02-.036-.004-.007c-.035-.06-.07-.115-.108-.168l-.028-.04c-.04-.05-.082-.098-.123-.143l-.018-.02-.02-.02c-.03-.032-.06-.062-.09-.09l-.04-.04c-.038-.035-.077-.07-.116-.102-.048-.04-.096-.075-.143-.108-.053-.024-.105-.045-.157-.063l-.05-.015c-.034-.012-.068-.022-.102-.03l-.058-.012-.09-.015-.06-.006c-.028-.002-.057-.004-.085-.004h-.058c-.028 0-.057.003-.084.006-.02 0-.038.002-.056.005-.03.004-.057.01-.085.015l-.052.01-.038.01-.05.016c-.016.004-.03.008-.046.014-.035.01-.068.024-.102.038l-.03.012c-.088.038-.176.084-.262.137l-.028.017c-.034.02-.067.042-.1.064l-.038.027-.09.063-.04.03-.088.068-.04.032-.09.074-.034.028-.103.088-.02.017-.115.102h-.002l-.006.006c-.072.064-.145.13-.218.193l-.188.164-.03.026c-.064.055-.128.108-.193.16l-.033.028c-.065.052-.13.103-.198.152l-.036.025c-.067.05-.135.096-.204.14l-.035.022c-.07.044-.142.086-.216.125l-.03.015c-.077.04-.154.075-.234.106l-.02.008c-.084.033-.17.06-.257.084-.147.038-.297.063-.447.082-.244.03-.492.042-.744.036-.085-.002-.17-.007-.254-.01l-.09-.006c-.22-.015-.443-.038-.667-.063l-.284-.032c-.152-.018-.306-.034-.46-.05-.03-.002-.06-.006-.09-.01h.002c-.022 0-.043-.003-.065-.004l-.102-.01-.096-.006-.017-.002h-.01l-.09-.007c-.07-.005-.14-.01-.21-.012h-.06c-.052-.003-.104-.005-.155-.005h-.084c-.045 0-.09 0-.134.002l-.09.003c-.013 0-.026 0-.04.002-.03 0-.06.002-.09.004l-.09.006-.138.014c-.014 0-.028.003-.042.004-.013 0-.026.003-.038.004-.058.007-.116.016-.173.025l-.047.007c-.073.012-.146.027-.22.044l-.056.014c-.048.01-.095.024-.142.037l-.02.004-.08.024c-.047.015-.095.03-.143.047l-.083.03c-.048.017-.096.036-.143.056l-.082.035c-.05.022-.102.047-.153.072-.023.01-.046.022-.07.034-.073.04-.147.08-.22.123-.57.424-1.037.964-1.385 1.57-.117.2-.22.41-.31.625-.094.227-.172.46-.235.698-.018.07-.035.138-.05.208-.027.117-.05.236-.07.355 0 .01-.002.024-.004.037-.018.134-.033.268-.042.404-.01.142-.012.283-.01.424 0 .076.002.152.007.228.012.204.04.407.077.61l.01.053.03.155c.035.142.074.284.12.423.018.052.04.1.058.15.02.047.036.096.055.142.15.353.338.664.55.942.812 1.057 1.996 1.603 2.838 1.87.326.098.664.178 1.013.243 0 0-.015.01-.037.03l-.2.08c-.112.047-.242.104-.383.17-.16.077-.335.166-.52.27-.488.273-1.037.646-1.504 1.124-.06.06-.116.12-.17.184-.096.108-.185.222-.27.34-.01.012-.02.025-.03.04l-.036.054c-.032.047-.063.095-.093.143l-.036.06c-.04.066-.077.133-.112.202-.034.068-.066.138-.096.21-.24.567-.336 1.223-.187 1.973V250.057l.003-.03v-.006l.005-.04.002-.01.007-.06v-.014l.013-.078.016-.087.003-.018.02-.098.005-.016.026-.1.004-.015.034-.114.008-.025.042-.12.002-.005c.024-.06.05-.124.08-.187.01-.024.02-.048.033-.072l.01-.02c.025-.05.052-.1.082-.15.022-.04.05-.08.076-.122l.026-.038c.022-.03.044-.062.068-.093l.03-.037c.032-.04.065-.08.1-.12l.005-.003s-.502 1.646-.043 2.845l-.002-.01v-.008l-.004-.025v-.007l-.006-.045v-.007l-.006-.06v-.008l-.005-.077c0-.002 0-.004-.002-.007l-.002-.09v-.007-.097-.01c0-.036.002-.074.004-.114v-.01l.002-.02c.003-.045.008-.09.014-.136v-.01c.007-.045.014-.09.023-.136l.007-.043.006-.03.03-.115v-.006h.002c.015-.053.034-.106.056-.158l.018-.04c.022-.053.047-.104.076-.153v-.002s.01.39.078.845c.01.072.023.145.037.22.008.048.018.098.03.147-.032-.495 0-.968.08-1.414-.08.447-.112.92-.08 1.414.018.316.064.64.14.974.125.555.336 1.134.653 1.73 0 0-.31-.693-.085-1.45.037.06.075.123.115.185.053.212.135.51.24.836.13.55.612 2.185 1.91 3.217 0 0-.506-.502-.53-1.234.058.088.113.168.166.237.24.34.717.967 1.202 1.384 0 0-.43-.618-.366-.77 0 0 1.302 1.245 1.678 1.336l-.57-.714-.013-.02c1.787.97 4.09 1.13 6.775.025.46-.19.934-.418 1.417-.685.295-.172.586-.356.87-.556l.043-.03c.2-.142.396-.292.59-.45l.005-.002c.146-.118.29-.24.43-.366.238-.212.472-.434.696-.672h.002c.013-.016.026-.03.04-.044.22-.245.426-.494.614-.745.248-.33.467-.666.66-.998l.015-.025.137-.243.013-.024c.015-.027.027-.054.04-.08.063-.116.124-.232.18-.346l.04-.083.085-.182.062-.14.066-.15c.038-.09.075-.18.11-.27l.04-.104.077-.205c.01-.033.022-.064.033-.095l.01-.03c.03-.085.06-.17.086-.252l.005-.018c.125-.146.218-.282.29-.41l.032-.054c.16-.3.192-.552.168-.77M85.255 247.84c-.047.02-.094.09-.138.183-.016.035-.032.073-.048.113-.113.29-.198.685-.198.685-.006-.127-.008-.26-.01-.393v-.047c0-.135.002-.273.006-.41v-.05c.005-.153.01-.307.02-.455 0-.02 0-.038.002-.057v-.01l.003-.052.004-.076.023-.34.02-.278.004-.027c0-.014.002-.027.003-.04l.003-.04v-.003l.006-.065v-.006l.006-.056.008-.09v-.007l.007-.066.008-.083.005-.043v-.002l.004-.037.008-.07.002-.02v-.005l.003-.02v-.014l.002-.002-.003.002-.026.03c-.023.027-.047.052-.068.08l-.024.033c-.025.035-.048.072-.07.11l-.012.02c-.026.048-.05.1-.074.15l-.003.007-.01.023-.015.037c-.012.032-.026.063-.037.095v.002l-.002.003-.003.012-.004.01c-.02.05-.034.1-.048.15-.04.14-.067.27-.087.378l-.017.107-.02.15v.003l-.002.018v-.02c-.004-.04-.004-.08-.006-.12-.004-.086-.01-.17-.01-.256-.002-.07 0-.14.002-.21v-.068c.002-.032.002-.064.003-.097 0-.03.005-.06.006-.09v-.003l.003-.033v-.01c.004-.037.006-.074.008-.11l.004-.043.002-.026v-.003l.003-.036c0-.014.003-.03.004-.043.005-.054.012-.107.018-.16v-.01l.014-.118v-.006l.002-.01c.01-.082.024-.16.037-.24l.003-.022.004-.022.007-.045c.02-.13.046-.258.073-.384l.004-.015c.023-.106.048-.212.074-.316l.004-.013.037-.135.003-.007c.02-.067.036-.135.055-.2v-.002l.004-.01.036-.114v-.003l.003-.007.022-.07.035-.11.01-.034c-.024-.01-.05-.017-.074-.025l-.013-.004-.027-.01c-.16-.053-.326-.09-.496-.112L84.31 244c-.11-.012-.22-.02-.33-.018-.066 0-.13.003-.196.008-.054.005-.108.01-.162.018-.082.012-.162.03-.24.047l-.074.02c-.038.01-.076.023-.114.035l-.046.014-.08.028c-.05.02-.1.04-.15.063l-.07.03c-.066.033-.132.068-.195.106l-.073.048-.085.057-.03.02c-.03.022-.06.046-.09.07-.028.02-.056.043-.082.066l-.095.085c-.02.018-.037.037-.056.056-.05.05-.096.103-.14.156l-.07.084c-.04.05-.076.1-.112.152l-.017.026c-.02.028-.036.058-.053.086l-.002.005-.003.003c-.01.02-.024.038-.035.058l-.004.01-.005.007c-.068.125-.125.256-.172.39l-.02.06c-.02.065-.04.13-.055.2l-.02.08c-.014.07-.025.138-.033.21l-.003.025-.003.033v.003c-.005.05-.01.102-.01.153-.002.027-.002.052-.002.078V246.657c.002.02 0 .042.002.063.004.08.012.16.024.242.01.063.023.124.037.185v.004l.006.03.03.1c.033.12.074.238.124.35.038.086.08.17.128.25.086.147.187.283.3.41.234.266.52.483.844.636.183.087.377.152.578.196.193.04.393.065.597.062.047 0 .094-.003.14-.006.07-.004.14-.01.208-.02.065-.01.127-.024.19-.038.035-.008.072-.013.108-.022.09-.024.177-.053.262-.086l.02-.006c.034-.014.067-.032.1-.047.107-.048.21-.1.308-.16l.02-.014c.03-.016.057-.03.083-.05h.003c-.086-.27-.16-.55-.224-.837l-.015-.06" fill="#FCE9C8"/><path d="M97.573 237.244c-.124-.048-.256-.077-.388-.093-.087-.01-.174-.013-.26-.013-.03 0-.062 0-.094.002-.434.015-.798.132-.798.132-.077.028-.15.058-.223.09-.563.246-.932.596-1.173.978-.195.31-.306.638-.363.95-.006.027-.01.055-.014.082-.013.08-.023.16-.03.236-.022.26-.013.494.004.68.024.252.065.41.065.41.072-.23.154-.446.24-.648.214-.502.46-.915.722-1.255.506-.66 1.06-1.046 1.5-1.266.472-.24.81-.286.81-.286M104.455 235.565l-.023-.023c-.076-.074-.164-.14-.266-.192-.24-.124-.557-.165-.97-.027 0 0-.49.18-.745.54 0 0 .833-.477 1.846.062.093.05.186.107.28.174.098.068.195.145.294.235 0 0-.088-.396-.362-.712-.016-.02-.035-.04-.053-.058M96.282 241.34c.03-.03.06-.058.093-.088l.043-.036c.03-.026.06-.052.095-.078.018-.014.04-.028.06-.042.03-.023.06-.046.095-.07l.072-.043c.034-.02.067-.042.102-.062.027-.015.057-.028.085-.043l.107-.055.098-.04c.038-.017.074-.033.113-.048.036-.013.074-.024.112-.037.035-.012.07-.025.107-.035l.022-.007c.053-.013.104-.024.155-.034l.05-.007c.033-.006.068-.012.102-.016l.054-.006.092-.008.055-.003c.03-.003.06-.004.088-.004h.048c.065 0 .128.003.19.008l.033.003c.062.006.12.014.177.024l.027.006c.058.01.114.024.167.038l.016.004c.054.015.106.03.156.05h.004c.06.022.115.045.166.068h.003c.05.025.1.05.143.074-.08-.292-.325-.916-1.002-1.068h-.002c-.096-.022-.2-.034-.315-.034-.03 0-.057 0-.086.002-.1.005-.207.02-.32.043-1.28.266-1.347 1.33-1.333 1.686.033-.038.067-.075.104-.113l.028-.026" fill="#E1B27E"/><path d="M110.81 248.178l-.015-.036-.027-.066c-.112-.244-.237-.43-.344-.56-.137-.17-.243-.247-.243-.247.012-.068.02-.132.025-.196.007-.082.01-.163.01-.24-.004-.587-.218-1.018-.375-1.256-.025-.038-.05-.07-.07-.1-.082.076-.165.15-.25.222-1.59 1.373-3.45 2.357-5.526 2.937-1.43.4-2.962.608-4.58.612l.027.004s-.944.247-1.09 1.19l.018.007-.003.62c.132.824.58 1.294 1.05 1.513.475.115 1.038.178 1.655.178 1.074 0 2.283-.182 3.497-.528l.006-.002.007-.002c1.62-.42 3.836-1.573 5.357-2.898.347-.3.657-.612.916-.925l.01-.012.018-.02c-.026-.076-.05-.142-.07-.195" fill="#FFF"/><path fill="#EFCFA5" d="M97.464 240.662c-.038.01-.072.023-.107.035.035-.012.07-.024.107-.035l.022-.007-.022.006v.002"/><path d="M95.985 241.977c-.035.015-.063.02-.08.005-.055-.025.024-.244.246-.503-.013-.356.053-1.42 1.333-1.687.114-.024.22-.038.32-.043l.086-.002c.113 0 .218.012.314.033l.002.002c.677.152.923.776 1.002 1.068.22.125.33.25.295.278-.01.027-.046.036-.1.036-.053.034-.17.052-.333.07-.326.033-.833.063-1.39.208l-.114.03c-.83.216-1.445.563-1.58.505zm-.723-3.182c-.26.34-.508.753-.722 1.255-.086.202-.168.417-.24.65 0 0-.042-.16-.066-.413-.017-.185-.026-.42-.003-.68.007-.076.017-.155.03-.235.004-.027.008-.055.014-.082.057-.312.168-.64.363-.95.24-.382.61-.732 1.172-.98.07-.03.145-.06.222-.088 0 0 .364-.117.8-.133.03-.002.062-.003.094-.003.085 0 .172.004.26.014.13.017.263.046.387.094 0 0-.34.047-.812.285-.438.22-.992.604-1.498 1.265zm7.933-3.472c.414-.138.73-.097.97.027.103.052.19.118.267.192l.023.023c.018.018.037.038.053.058.274.316.362.712.362.712-.1-.09-.196-.167-.293-.236-.095-.068-.188-.126-.28-.175-1.014-.54-1.846-.06-1.846-.06.255-.362.745-.542.745-.542zM97.74 244.1c.052-.038.106-.074.16-.11.023-.016.047-.03.07-.047l.165-.106.08-.05c.054-.033.11-.068.166-.1.03-.02.06-.037.09-.055l.167-.097.1-.058.167-.092.114-.06c.054-.03.11-.06.165-.088.04-.023.084-.044.127-.066.054-.026.107-.054.163-.08l.14-.07c.055-.025.108-.052.162-.076.052-.025.105-.05.157-.073l.157-.07c.057-.027.116-.052.176-.078l.15-.065.195-.08.098-.04c.182-.69.76-2.413 2.08-2.755.143-.04.272-.062.395-.078l.093-.014c-.027-.092-.052-.19-.07-.29-.13-.696.013-1.306.322-1.362.24-.05.475.275.523.392.12.202.218.467.274.766.052.274.058.532.03.75.032.025.058.053.086.08.355.338.473.854.507 1.226.118-.027.24-.052.36-.078l.093-.02.02-.004.052-.01c.15-.032.303-.062.457-.092l.006-.002c.35-.067.71-.132 1.08-.194-.21-.117-.342-.166-.342-.166-.96-.427-1.113-.588-1.214-2.055-.036-.526-.065-1.223-.123-2.164-.008-.123-.02-.24-.03-.352l-.01-.08c-.012-.108-.027-.213-.043-.313l-.005-.027-.007-.03c-.015-.08-.03-.156-.046-.23l-.022-.096-.06-.23c-.012-.037-.025-.073-.036-.11l-.042-.12-.043-.113c-.15-.17-.322-.32-.517-.44l-.038-.02-.008-.005-.028-.017-.01-.006c-.028-.016-.057-.032-.086-.046-.03-.014-.06-.03-.093-.042-.283-.126-.59-.19-.91-.197-.177-.003-.358.01-.542.04-.085.014-.17.032-.257.052-.224.055-.45.13-.68.23-.07.065-.144.13-.217.194l-.188.164-.03.026c-.064.055-.128.108-.193.16l-.033.028c-.065.052-.13.103-.198.152l-.036.025c-.067.05-.135.096-.204.14l-.035.022c-.07.044-.142.086-.216.125l-.03.015c-.077.04-.154.075-.234.106l-.02.008c-.084.033-.17.06-.257.084-.147.038-.297.063-.447.082-.244.03-.492.042-.744.036-.085-.002-.17-.007-.254-.01l-.09-.006c-.22-.015-.443-.038-.667-.063l-.284-.032c-.152-.018-.306-.034-.46-.05-.03-.002-.06-.006-.09-.01-.124.023-.248.05-.372.082l-.028.007c-.36.092-.716.223-1.065.392l-.056.026c-.054.027-.108.056-.162.085-.072.04-.144.08-.215.122-.497.294-.97.67-1.395 1.124-.173.185-.332.377-.478.575-.225.304-.417.622-.58.947-.01.018-.018.036-.026.055-.087.176-.164.355-.23.536-.025.065-.05.13-.072.194l-.004.013c-.07.21-.128.424-.173.638-.004.013-.006.025-.008.038l-.016.094c-.018.1-.035.198-.048.297-.013.103-.025.206-.033.308l-.005.066-.01.186c-.005.23.004.454.027.677.006.056.01.112.018.168.15.353.338.664.55.942.812 1.057 1.996 1.603 2.838 1.87.326.098.664.178 1.013.243l.01.013h.002l.02-.02.117-.112c.014-.013.03-.026.043-.04l.127-.114.044-.04c.042-.037.087-.077.133-.115l.045-.038c.046-.04.093-.077.142-.117l.047-.038.148-.116c.018-.012.035-.026.052-.04l.154-.113.058-.04c.05-.04.104-.076.157-.114l.064-.044zM98.115 240.575h-.034.048-.013M111.288 250.084c-.522.588-1.085 1.078-1.653 1.486-.284.203-.57.383-.85.548-.627.366-1.238.642-1.78.845-1.2.45-2.07.556-2.07.556.722.285 1.578.184 2.157.053.398-.09.668-.192.668-.192.018.248.015.477-.002.693-.02.238-.06.458-.117.66l-.003.018v.002c-.07.252-.166.476-.277.678-.012.022-.024.045-.037.066l.042-.03c.2-.142.396-.292.59-.45l.005-.002c.146-.118.29-.24.43-.366.238-.212.472-.434.696-.672h.002c.013-.016.026-.03.04-.044.22-.245.426-.494.614-.745.248-.33.467-.666.66-.998l.015-.025.137-.243.013-.024c.015-.027.027-.054.04-.08.063-.116.124-.232.18-.346l.04-.083.085-.182.062-.14.066-.15c.038-.09.075-.18.11-.27l.04-.104.077-.205c.01-.033.022-.064.033-.095l.01-.03c.03-.085.06-.17.086-.252-.036.042-.072.08-.108.12M95.757 245.47c-.16.077-.335.166-.52.27-.488.273-1.037.646-1.504 1.124-.06.06-.116.12-.17.184-.096.108-.185.222-.27.34-.01.012-.02.025-.03.04l-.036.054c-.032.047-.063.095-.093.143l-.036.06c-.04.066-.077.133-.112.202-.034.068-.066.138-.096.21-.24.567-.336 1.223-.187 1.973V250.057l.003-.03v-.006l.005-.04.002-.01.007-.06v-.014l.013-.078.016-.087.003-.018.02-.098.005-.016.026-.1.004-.015.034-.114.008-.025.042-.12.002-.005c.024-.06.05-.124.08-.187.01-.024.02-.048.033-.072l.01-.02c.025-.05.052-.1.082-.15.022-.04.05-.08.076-.122l.026-.038c.022-.03.044-.062.068-.093l.03-.037c.032-.04.065-.08.1-.12l.005-.003s-.502 1.646-.043 2.845l-.002-.01v-.008l-.004-.025v-.007l-.006-.045v-.007l-.006-.06v-.008l-.005-.077c0-.002 0-.004-.002-.007l-.002-.09v-.007-.097-.01c0-.036.002-.074.004-.114v-.01l.002-.02c.003-.045.008-.09.014-.136v-.01c.007-.045.014-.09.023-.136l.007-.043.006-.03.03-.115v-.006h.002c.015-.053.034-.106.056-.158l.018-.04c.022-.053.047-.104.076-.153v-.002s.01.39.078.845c.01.072.023.145.037.22.008.048.018.098.03.147-.032-.495 0-.968.08-1.414.02-.123.047-.244.075-.363l.012-.05c.028-.114.058-.225.09-.333l.02-.06c.034-.11.07-.215.108-.32l.018-.047c.082-.217.172-.425.27-.623l.02-.044c.036-.074.075-.146.113-.217l.03-.056.028-.05c.05-.09.098-.175.15-.26l.023-.038c.053-.086.106-.17.16-.25l.002-.006c.067-.102.135-.2.203-.293.05-.07.098-.135.147-.2l.057-.07c.118-.152.233-.288.34-.41.323-.365.58-.598.672-.676l-.2.08c-.112.047-.242.104-.383.17" fill="#EFCFA5"/><path d="M104.614 240.877s-.01-.04-.03-.098c-.087-.222-.383-.732-1.27-.536-.93.205-1.152.992-1.2 1.257-.01.056-.014.09-.014.09l.03.02c.105-.116.334-.132.557-.028.102.047.186.113.247.185.095.112.134.24.09.343-.01.022-.023.04-.038.06 0 0 .038.008.1.018.272.044 1.016.105 1.345-.443.016-.026.033-.05.047-.08-.082-.03-.14-.135-.156-.268-.008-.063-.008-.133.005-.204.037-.217.167-.36.29-.316M100.81 248.265c-.592.198-1.112.356-1.517.472h.07c.702 0 1.813-.032 3.132-.276 2.4-.44 5.49-1.582 8.055-4.508l.006-.012v-.004c-.017-.217-.096-.602-.41-.87-.054-.048-.117-.09-.186-.13l-.035-.015c-.08-.032-.153-.066-.22-.1-.054-.026-.107-.052-.154-.078l-.006-.008c-.146.274-.322.54-.524.796-.07.09-.148.18-.226.267-.707.807-1.664 1.524-2.714 2.146-1.747 1.035-3.747 1.813-5.27 2.322M84.98 245.986c-.023.027-.047.052-.068.08l-.024.033c-.025.035-.048.072-.07.11l-.012.02c-.026.048-.05.1-.074.15l-.003.007-.01.023-.015.037c-.012.032-.026.063-.037.095v.002l-.002.003-.003.012-.004.01c-.02.05-.034.1-.048.15-.04.14-.067.27-.087.378l-.017.107-.02.15v.003l-.002.018v-.02c-.004-.04-.004-.08-.006-.12-.004-.086-.01-.17-.01-.256-.002-.07 0-.14.002-.21v-.068c.002-.032.002-.064.003-.097 0-.03.005-.06.006-.09v-.003l.003-.033v-.01c.004-.037.006-.074.008-.11l.004-.043.002-.026v-.003l.003-.036c0-.014.003-.03.004-.043.005-.054.012-.107.018-.16v-.01l.014-.118v-.006l.002-.01c.01-.082.024-.16.037-.24l.003-.022.004-.022.007-.045c.02-.13.046-.258.073-.384l.004-.015c.023-.106.048-.212.074-.316l.004-.013.037-.135.003-.007c.02-.067.036-.135.055-.2v-.002l.004-.01.036-.114v-.003l.003-.007.022-.07.035-.11.01-.034c-.024-.01-.05-.017-.074-.025l-.013-.004-.027-.01c-.16-.053-.326-.09-.496-.112L84.31 244c-.11-.012-.22-.02-.33-.018-.066 0-.13.003-.196.008-.054.005-.108.01-.162.018-.082.012-.162.03-.24.047l-.073.02c-.04.01-.078.023-.116.035l-.046.014-.08.028c-.05.02-.1.04-.15.063l-.07.03c-.066.033-.132.068-.195.106l-.073.048-.085.057-.03.02c-.03.022-.06.046-.09.07-.028.02-.056.043-.082.066l-.095.085c-.02.018-.037.037-.056.056-.05.05-.096.103-.14.156l-.07.084c-.04.05-.076.1-.112.152l-.017.026c-.02.028-.036.058-.053.086l-.002.005-.003.003c-.01.02-.024.038-.035.058l-.004.01-.005.007c-.068.126-.125.257-.172.39l-.02.06c-.02.065-.04.13-.055.2l-.02.08.022.047c.025.055.05.108.077.16l.01.018.008.018c.027.053.055.104.083.154.085.15.172.285.256.403l.036.052.01.01.01.016c.064.084.124.157.18.22.088.102.163.18.217.23l.03.028.022.02.033.028c-.01-.027-.017-.055-.027-.083-.066-.2-.113-.398-.143-.594l-.002-.01-.004-.024c-.017-.126-.03-.25-.035-.374.018.045.038.09.058.132.03.064.06.127.09.187l.012.022.004.007c.134.256.277.467.407.636.155.202.292.342.373.418.016.017.03.03.042.04l.035.03c-.078-.21-.13-.42-.165-.63-.012-.07-.023-.14-.03-.21-.01-.087-.017-.175-.02-.262.057.142.12.273.183.395l.005.01c.23.44.486.752.658.935l.02.02c.03.03.055.057.08.08l.043.042.04.035.02.017-.01-.03-.03-.087c-.035-.106-.063-.21-.087-.316-.016-.07-.03-.14-.042-.21-.01-.067-.018-.133-.026-.2l-.003-.034-.008-.102v-.02l-.002-.016c-.005-.087-.01-.173-.008-.258.023.054.048.105.072.155l.057.11.01.02.013.023c.023.044.046.085.07.126.045.077.09.15.134.216.054.083.108.16.16.228.03.04.06.076.087.11.036.044.07.085.103.122l.083.09.02.022.067.07.043.04.067.06.006.005.02.01v-.047c0-.135 0-.273.005-.41v-.05c.005-.153.01-.307.02-.455 0-.02 0-.038.002-.057v-.01l.003-.052.004-.076.023-.34.02-.278.004-.027c0-.014.002-.027.003-.04l.003-.04v-.003l.006-.065v-.006l.006-.056.008-.09v-.007l.007-.066.008-.083.005-.043v-.002l.004-.037.008-.07.002-.02v-.005l.003-.02v-.014l.002-.002-.003.002-.026.03M105.392 250.252c.218-.106.41-.193.555-.278.292-.168.448-.276.433-.307-.015-.03-.2.016-.517.13-.16.058-.354.115-.577.194-.11.042-.234.073-.36.114-.13.038-.263.083-.407.117-.284.076-.607.153-.95.236l-.528.108-.564.098c-.774.117-1.635.188-2.527.136-.468-.023-1.11-.154-1.582-.347l-.018-.006c.146-.943 1.09-1.19 1.09-1.19l-.027-.005h-.05c-.14 0-.267-.002-.373-.003h-.317c-.584.033-.84.555-.923.78-.012.03-.023.064-.033.097-.06.198-.088.422-.074.653.025.432.195.887.578 1.247.257.242.672.432 1.196.56-.47-.22-.92-.69-1.05-1.513.52.15 1.11.207 1.552.23.947.055 1.843-.035 2.64-.182l.58-.12c.185-.05.367-.095.542-.14.34-.1.654-.196.947-.298.147-.046.28-.104.408-.155.127-.054.248-.098.357-.153" fill="#EFCFA5"/><path d="M103.282 239.694c.485-.05.833.063 1.08.256.026-.22.02-.477-.03-.75-.058-.3-.157-.564-.275-.766-.048-.118-.284-.442-.523-.393-.31.058-.453.667-.323 1.363.02.1.045.198.072.29M97.623 241.146c.56-.154 1.072-.087 1.42-.03.16.027.286.05.367.05.053.002.088-.008.1-.035.035-.026-.076-.152-.296-.277-.044-.024-.09-.05-.143-.073-.053-.024-.108-.047-.167-.068l-.005-.002c-.05-.017-.102-.034-.156-.048l-.014-.005c-.054-.014-.11-.026-.168-.037l-.027-.005c-.056-.01-.115-.02-.176-.025l-.033-.002c-.062-.006-.125-.01-.19-.01h-.047l-.088.004c-.02 0-.037.002-.056.003-.03.003-.06.005-.092.01-.018 0-.036.003-.054.005l-.103.016-.048.008c-.05.01-.102.02-.154.034l-.022.007c-.037.01-.072.024-.107.035-.037.013-.076.024-.112.037l-.112.047-.097.04-.107.056-.085.044c-.035.02-.068.04-.102.062-.024.015-.05.03-.07.044-.036.023-.067.046-.1.07-.018.013-.04.027-.057.042-.035.025-.065.05-.096.077l-.043.036-.092.088-.028.026c-.037.038-.07.076-.103.112-.222.26-.3.478-.244.503.015.014.043.01.078-.004.208-.08.742-.563 1.522-.8.037-.012.073-.024.11-.034M104.327 241.4c.017.133.074.24.156.27.122.042.25-.1.29-.318l.006-.057c.016-.196-.05-.376-.16-.415-.122-.043-.25.1-.29.317-.012.07-.012.14-.003.203M102.174 242.008c.06.076.148.146.255.196.224.105.458.088.562-.032.016-.017.03-.037.037-.06.044-.103.005-.23-.09-.34v-.002c-.06-.072-.145-.137-.247-.185-.223-.104-.45-.088-.558.027-.017.02-.033.04-.043.064-.042.1-.006.223.082.332M110.557 243.94v-.003l-.012.02c.002 0 .004-.003.005-.004l.007-.012M110.863 248.394l-.01.012c-.26.313-.57.624-.916.925-1.52 1.326-3.737 2.48-5.357 2.9h-.006l-.006.003c-1.215.346-2.424.53-3.497.53-.616 0-1.18-.064-1.654-.18-.523-.126-.94-.316-1.195-.56-.38-.358-.552-.814-.577-1.245-.014-.23.014-.455.074-.653.01-.033.02-.066.033-.098.083-.224.34-.746.924-.778.022-.003.06-.004.115-.004.056 0 .123 0 .2.002l.374.002h.05c1.618-.004 3.15-.213 4.58-.613 2.076-.58 3.937-1.563 5.527-2.937.085-.072.168-.146.25-.22l.775-1.522c-2.564 2.922-5.65 4.062-8.05 4.504-1.318.244-2.43.276-3.13.276h-.07c-.212 0-.384-.004-.506-.004-.062 0-.11 0-.148.003-.183.01-.352.054-.507.123-.316.142-.57.396-.744.712-.214.39-.31.875-.255 1.363.045.4.192.803.458 1.156l.03.045c.032.038.064.076.098.113.046.05.093.1.144.147.584.554 1.73.88 3.207.88 1 0 2.148-.152 3.374-.48 3.596-1.106 5.196-2.493 5.9-3.416.05-.07.098-.134.14-.196.25-.365.347-.634.38-.75l.005-.015c.008-.03.01-.047.01-.047l-.017.02" fill="#59473C"/><path d="M104.464 223.144c-.33-.286-.697-.488-1.086-.624-.07-.016-.142-.033-.214-.045l-.112-.052c-.34-.084-.692-.124-1.05-.128-1.78-.017-3.7.846-4.785 1.426l-.18.1-.276.16c-.155.09-.313.185-.473.282-.023.014-.046.03-.07.043l-.352-.318-.16-.144-.146-.133-1.518-1.373-.143-.13-.024.008-.323.113-.374.13c-.225-.07-.486-.11-.782-.113-.594-.004-1.328.15-2.148.464-.82.312-1.726.784-2.672 1.396-1.894 1.223-3.95 3.008-5.874 5.2-.67.765-1.29 1.54-1.85 2.308-.546.746-1.038 1.488-1.472 2.214-.88 1.474-1.523 2.882-1.894 4.115-.247.82-.372 1.564-.375 2.187-.003.453.06.842.173 1.156.038.102.08.193.13.28.098.18.218.334.364.46l1.467 1.195.157.13.007-.01c.036-.052.07-.1.107-.15l.01-.014.04-.05c.034-.046.07-.09.105-.135l.067-.08c.02-.026.042-.052.065-.078l.03-.034.074-.08c.033-.037.068-.074.103-.11l.063-.064.01-.01.113-.107.072-.068c.04-.037.08-.072.122-.107l.074-.062c.042-.034.085-.068.13-.1l.074-.06.138-.098c.025-.017.05-.035.074-.05l.028-.02.004-.004.12-.076.067-.043.103-.06c.03-.018.06-.036.09-.052l.034-.02c.076-.042.154-.082.232-.12.025-.013.05-.023.076-.035l.082-.038.032-.015.05-.022c.032-.014.067-.027.1-.04l.026-.012.118-.046.112-.04c.046-.017.092-.033.14-.048l.058-.02c.02-.005.04-.01.06-.017l.138-.04c.04-.01.082-.02.123-.032l.1-.024.04-.01.045-.01.025-.004c.166-.027.35-.047.55-.055h.032c.203-.008.425-.002.66.02.057.004.113.01.17.016l.03-.07c.094-.228.192-.452.292-.672.582-1.287 1.234-2.428 1.92-3.437.233-.345.47-.674.71-.988 1-1.31 2.037-2.36 3-3.19.216-.183.426-.357.632-.52.28-.22.55-.424.81-.608.21-.15.414-.287.607-.413.323-.21.618-.39.88-.537.08-.046.156-.09.23-.13l.316-.166c-.088.002-.177.005-.267.01-.085.006-.17.015-.256.024l-.065.01c-.087.01-.174.023-.262.04-.167.028-.337.066-.51.113-.057.016-.114.034-.173.052.41-.274.82-.492 1.22-.666.267-.117.53-.214.782-.295.35-.11.682-.19.99-.245.21-.038.405-.065.588-.085.183-.02.352-.032.505-.038.535-.023.864.02.864.02-.088-.096-.194-.176-.307-.243-.204-.122-.432-.2-.63-.25-.078-.02-.152-.037-.217-.05l-.14-.022.26-.07c.092-.023.182-.044.27-.063.755-.16 1.43-.174 1.943-.14.618.04 1 .146 1 .146-.106-.156-.25-.282-.405-.385-.112-.074-.23-.137-.34-.187.21.022.408.05.597.085.5.09.933.21 1.275.327.11.037.213.074.304.11l.074.03c.315.124.493.22.493.22-.07-.167-.19-.317-.324-.45-.034-.033-.068-.066-.103-.096l.015.004.07.013.088.02c.135.03.342.086.587.172l.036.012.1.038c.084.032.172.068.262.108.083.037.17.076.255.12l.135.07c.095.053.19.11.287.17.097.064.194.133.29.206l.056.044c.07.056.137.115.203.177.125.117.243.245.35.385.13.167.247.352.34.556l.016.035c.043-.058.12-.163.22-.307.822-1.19 3.204-5.026 1.258-6.97" fill="#141B26"/><path d="M92.945 223.88l-.13-.632.24-.745.124-.044c-.225-.073-.486-.113-.782-.115-.594-.004-1.328.15-2.148.464-.82.312-1.726.784-2.672 1.396-1.894 1.223-3.95 3.008-5.874 5.2-.67.765-1.29 1.54-1.85 2.308-.546.746-1.038 1.488-1.472 2.214-.88 1.474-1.523 2.882-1.894 4.115-.247.82-.372 1.564-.375 2.187-.003.453.06.842.173 1.156.038.102.08.193.13.28.098.18.218.334.364.46l1.467 1.195.157.13.007-.01c.036-.052.07-.1.107-.15l.01-.014.04-.05c.034-.046.07-.09.105-.135l.067-.08c.02-.026.042-.052.065-.078l.03-.034.074-.08c.033-.037.068-.074.103-.11l.063-.064.01-.01.113-.107.072-.068c.04-.037.08-.072.122-.107l.074-.062c.042-.034.085-.068.13-.1l.074-.06.138-.098c.025-.017.05-.035.074-.05l.028-.02v-.006c.21-.89.567-1.87 1.058-2.906.602-1.272 1.405-2.627 2.386-3.997.617-.86 1.304-1.73 2.056-2.586.972-1.108 1.978-2.113 2.983-3 .677-.596 1.352-1.136 2.018-1.618l.19-.14c.176-.125.353-.245.528-.362.383-.256.76-.49 1.13-.703l-.217-.204-.036-.033-.27-.25-1.54-1.444-.125-1.147-.017-.014.918-.392 1.972.72" fill="#3578AD"/><path fill="#4D94C3" d="M93.375 224.04l.05.017v-.006l-.05-.01"/><path d="M93.9 222.207l-.846.296.37 1.548-2.45-.89-.92.392.018.014 3.188 2.83.025-.02.033-.026c.08-.065.162-.13.244-.194l.085-.068c.118-.093.237-.183.356-.273l-1.355-1.21 2.042.706.007-.004.163-.114-.342-1.34.996.898.01-.007.207-.133.023-.013.033-.022.035-.022c.03-.02.06-.04.09-.057l.017-.01c.098-.062.194-.122.29-.18l-2.318-2.1" fill="#FACE55"/><path fill="#4D94C3" d="M93.066 222.55l-.012-.047.012.048"/><path d="M93.054 222.503l.125-.044c-.225-.073-.486-.113-.782-.115-.594-.004-1.328.15-2.148.464-.82.312-1.726.784-2.672 1.396-1.894 1.223-3.95 3.008-5.874 5.2-.67.765-1.29 1.54-1.85 2.308l2.997 2.86c.616-.854 1.296-1.71 2.037-2.556.992-1.13 2.018-2.154 3.045-3.06.996-.878 1.992-1.64 2.963-2.278l-.698-1.967-.125-1.147-.017-.014.918-.392 1.972.72-.13-.632.24-.745" fill="#4D94C3"/><path d="M93.054 222.503l-.24.745.13.633.48.17-.37-1.547M92.648 224.606l2.042.705-.687.505-1.355-1.21M94.518 223.853l.342 1.34.654-.443-.996-.897" fill="#141B26"/><path d="M101.762 222.496c.118-.02.234-.034.35-.045.325-.03.635-.028.932.01l.048.004h.004l.012.002.03.005.026.005-.112-.052c-.34-.084-.692-.124-1.05-.128-1.78-.017-3.7.846-4.785 1.426l-.18.102c-.092.05-.183.103-.276.158-.155.09-.313.185-.473.282-.023.014-.046.03-.07.043l-.29.18-.018.01c-.03.02-.06.04-.09.058l-.034.022-.033.022-.022.013-.206.133-.01.007c-.002 0-.004.003-.006.004l-.05.032-.01.006c-.012.01-.025.017-.037.025-.106.07-.212.142-.318.214l-.22.154-.012.008-.163.114-.007.005c-.176.126-.35.253-.525.383l-.055.04-.046.035c-.015.01-.03.022-.043.033l-.017.015c-.12.09-.238.18-.356.273l-.085.068-.244.194-.033.027-.025.02c-.225.182-.448.368-.668.558-.365.312-.724.633-1.077.963l-.136.13c-.924.87-1.806 1.793-2.643 2.74-.884 1.003-1.717 2.035-2.497 3.064-.425.534-.79 1.01-1.084 1.41-.592.8-.91 1.29-.893 1.298.007.006.06-.056.154-.173l-.226.33c1.295-1.73 2.744-3.515 4.327-5.224.96-1.037 1.97-2.045 3.022-2.994.46-.417.93-.82 1.41-1.21.152-.126.306-.25.46-.372l.233-.18c.044-.035.088-.07.132-.103l.25-.19.245-.183.13-.094c.103-.076.208-.15.313-.226l.19-.134c.198-.14.398-.274.6-.407l.05-.032.094-.062.125-.083.047-.03.005-.005.085-.054.018-.01.01-.007.263-.166.048-.03.085-.05c.1-.064.202-.126.302-.187l.083-.05c.014-.01.028-.017.043-.025l.086-.05c.117-.07.234-.14.35-.205.104-.06.205-.117.308-.174.58-.326 1.127-.605 1.64-.836.983-.444 1.846-.725 2.618-.848" fill="#FFF"/></g><g><rect width="66" height="66" rx="8.5" stroke="#CFD9E2" stroke-width=".735" fill="#FFF" stroke-linecap="square" opacity=".8" filter="url(#g)" stroke-opacity=".304" transform="translate(3 150)"/><path d="M24 167.347c0-.865.692-1.566 1.556-1.566H39.63l9.37 9.4v23.4c0 .864-.695 1.563-1.564 1.563H25.564c-.864 0-1.564-.702-1.564-1.566v-31.23z" fill="#21A464"/><path d="M16.114 9.696L25 17.18l-8.886-.456V9.696z" fill="url(#h)" opacity=".606" transform="rotate(180 32.557 95.938)"/><path d="M39.625 165.775l9.373 9.377h-7.804c-.867 0-1.57-.704-1.57-1.57v-7.807z" fill="#8ED1B1"/><g fill="#FFF"><path d="M31.422 184.133v8.2h10.156v-8.2H31.422zm11.328-1.17v10.542h-12.5v-10.543h12.5z"/><path d="M41.578 189.21H30.836v1.17H42.164v-1.17h-.586zM41.578 186.086H30.836v1.17H42.164v-1.17h-.586z"/><path d="M35.914 183.743v9.567h1.172v-10.153h-1.172v.586z"/></g></g><g><rect width="80" height="80" rx="8.5" stroke="#CFD9E2" stroke-width=".735" fill="#FFF" stroke-linecap="square" filter="url(#i)" stroke-opacity=".304" transform="translate(274 2)"/><path d="M322.814 41.34c-.582-.02-1.14.016-1.663.1.148-1.185.637-2.64 2.37-2.578 1.92.066 2.188 1.878 2.195 3.106-.81-.36-1.81-.59-2.9-.63m8.203-12.856c-.32-1.716-1.34-2.562-2.264-2.894-.996-.36-3.015-.733-5.553-1.032-2.04-.24-4.44-.22-5.888-.176-.174-1.19-1.01-2.278-1.945-2.654-2.49-1.002-6.34-.76-7.328-.484-.786.22-1.655.67-2.14 1.362-.323.462-.533 1.055-.535 1.883 0 .47.013 1.573.025 2.554.012.985.025 1.865.025 1.87 0 .877-.71 1.59-1.59 1.59h-4.04c-.862 0-1.52.145-2.023.374-.503.228-.86.536-1.13.9-.54.724-.634 1.617-.632 2.53 0 0 .008.743.188 2.185.15 1.114 1.36 8.906 2.51 11.275.444.922.74 1.306 1.617 1.713 1.95.834 6.408 1.763 8.497 2.03 2.085.266 3.393.826 4.173-.808.003-.004.157-.406.368-.997.677-2.05.77-3.87.77-5.186 0-.134.198-.14.198 0 0 .93-.177 4.22 2.31 5.1.98.35 3.017.66 5.086.9 1.87.216 3.228.952 3.228 5.748 0 2.917-.614 3.317-3.82 3.317-2.598 0-3.59.068-3.59-1.996 0-1.667 1.65-1.492 2.875-1.492.545 0 .148-.407.148-1.435 0-1.025.64-1.616.035-1.63-4.23-.118-6.718-.006-6.718 5.28 0 4.8 1.838 5.69 7.84 5.69 4.707 0 6.366-.154 8.31-6.18.385-1.19 1.315-4.82 1.877-10.916.356-3.854-.335-15.486-.884-18.422m-31.422.846h4.04c.232 0 .418-.188.42-.417 0 0-.05-3.46-.05-4.42v-.013c0-.79.165-1.48.454-2.056l.138-.258c-.015.003-.03.01-.046.026l-7.846 7.775c-.016.013-.025.03-.03.046l.416-.205c.683-.308 1.512-.477 2.504-.477" fill="#2DBF60"/></g><g><g transform="translate(120 105)"><rect stroke-opacity=".304" stroke="#CFD9E2" stroke-width=".735" stroke-linecap="square" fill="#FFF" opacity=".85" filter="url(#j)" width="76" height="76" rx="8.5"/><g transform="translate(24.246 20)"><mask id="l" fill="#fff"><use xlink:href="#k"/></mask><path d="M19.74 2.29C19.18.557 17.32-.39 15.59.173c-1.73.562-2.68 2.42-2.116 4.15l8.52 26.214c.585 1.617 2.33 2.526 4.008 2.043 1.75-.502 2.815-2.36 2.257-4.077-.023-.065-8.52-26.214-8.52-26.214" fill="#E8A723" mask="url(#l)"/><path d="M6.54 6.578C5.977 4.848 4.12 3.9 2.388 4.463.658 5.025-.29 6.883.273 8.615l8.52 26.213c.584 1.617 2.33 2.525 4.007 2.042 1.75-.503 2.815-2.36 2.257-4.078-.02-.065-8.517-26.214-8.517-26.214" fill="#3EB890" mask="url(#l)"/></g><path d="M54.71 44c1.732-.564 2.678-2.422 2.116-4.153-.562-1.73-2.42-2.678-4.15-2.116L26.46 46.253c-1.617.584-2.526 2.33-2.043 4.007.502 1.748 2.36 2.814 4.077 2.256C28.562 52.496 54.71 44 54.71 44" fill="#E01765"/><path d="M31.925 51.402c1.706-.554 3.905-1.27 6.265-2.035L36.154 43.1 29.89 45.14l2.035 6.264" fill="#472A49"/><path d="M45.126 47.113l6.265-2.036-2.035-6.267-6.265 2.037 2.036 6.266" fill="#CC2027"/><path d="M50.422 30.797c1.73-.562 2.677-2.42 2.115-4.152-.562-1.73-2.42-2.677-4.152-2.115l-26.213 8.52c-1.617.585-2.525 2.33-2.042 4.008.503 1.75 2.36 2.815 4.078 2.257l26.214-8.518" fill="#70CADB"/><path d="M27.634 38.2c1.707-.553 3.906-1.268 6.266-2.035L31.865 29.9l-6.267 2.036 2.036 6.265" fill="#1A937D"/><path d="M40.836 33.912l6.266-2.036-2.036-6.267-6.267 2.036 2.036 6.266" fill="#65863A"/></g></g><g><rect width="66" height="66" rx="8.5" stroke="#CFD9E2" stroke-width=".735" fill="#FFF" stroke-linecap="square" opacity=".9" filter="url(#m)" stroke-opacity=".304" transform="translate(225 66)"/><g transform="translate(242 88)"><mask id="o" fill="#fff"><use xlink:href="#n"/></mask><path d="M31.27.545c-.384-.578-1.135-.72-1.68-.313L0 22.192c.218.33.578.547.986.546h29.296c.665 0 1.205-.572 1.205-1.28V1.26c-.004-.247-.074-.495-.218-.713M1.898.232C1.353-.174.6-.033.218.545.076.763.005 1.012 0 1.258v20.24L14.088 9.266 1.897.232" fill="#19A9E5" mask="url(#o)"/></g></g><g><use stroke="#FF4A00" stroke-width=".95" stroke-linecap="square" fill="#FFF" filter="url(#q)" xlink:href="#p" transform="translate(101 315)"/><path d="M128.46 349.392c-2.625 0-3.43-1.655-1.785-3.71l9.743-12.186c1.64-2.05 2.393-1.668 1.68.87l-3.002 10.69h3.575c2.62 0 3.352 1.61 1.64 3.594l-11.5 13.307c-1.372 1.59-1.892 1.282-1.16-.686l4.414-11.878h-3.605z" stroke="#FF4A00" stroke-width=".95" fill="#FF4A00"/></g></g></svg>